<?xml version="1.0" encoding="UTF-8" standalone="no"?>
<!-- Created with Inkscape (http://www.inkscape.org/) -->

<svg
   xmlns:dc="http://purl.org/dc/elements/1.1/"
   xmlns:cc="http://creativecommons.org/ns#"
   xmlns:rdf="http://www.w3.org/1999/02/22-rdf-syntax-ns#"
   xmlns:svg="http://www.w3.org/2000/svg"
   xmlns="http://www.w3.org/2000/svg"
   xmlns:sodipodi="http://sodipodi.sourceforge.net/DTD/sodipodi-0.dtd"
   xmlns:inkscape="http://www.inkscape.org/namespaces/inkscape"
   version="1.0"
   width="120"
   height="120"
   viewBox="0 0 507.946 507.946"
   id="svg49"
   xml:space="preserve"
   inkscape:version="0.48.4 r9939"
   sodipodi:docname="repeat.svg"><metadata
     id="metadata14"><rdf:RDF><cc:Work
         rdf:about=""><dc:format>image/svg+xml</dc:format><dc:type
           rdf:resource="http://purl.org/dc/dcmitype/StillImage" /></cc:Work></rdf:RDF></metadata><sodipodi:namedview
     pagecolor="#ffffff"
     bordercolor="#666666"
     borderopacity="1"
     objecttolerance="10"
     gridtolerance="10"
     guidetolerance="10"
     inkscape:pageopacity="0"
     inkscape:pageshadow="2"
     inkscape:window-width="796"
     inkscape:window-height="480"
     id="namedview12"
     showgrid="false"
     inkscape:zoom="2.7812867"
     inkscape:cx="76.560185"
     inkscape:cy="80.826198"
     inkscape:window-x="0"
     inkscape:window-y="27"
     inkscape:window-maximized="0"
     inkscape:current-layer="svg49" /><defs
     id="defs62" /><path
     d="M 277.14286 315.21933 A 22.857143 22.857143 0 1 1  231.42858,315.21933 A 22.857143 22.857143 0 1 1  277.14286 315.21933 z"
     transform="matrix(0.4000699,0,0,0.4940512,103.8531,46.166134)"
     style="fill:#000000;fill-rule:evenodd;stroke:#000000;stroke-width:1px;stroke-linecap:butt;stroke-linejoin:miter;stroke-opacity:1;fill-opacity:1"
     id="path2168" /><rect
     width="16.002796"
     height="278.08023"
     x="131.50079"
     y="110.95992"
     style="fill:#000000;fill-rule:evenodd;stroke:#000000;stroke-width:4.25404787;stroke-linecap:round;stroke-linejoin:round;stroke-miterlimit:4;stroke-dasharray:none;stroke-opacity:1"
     id="rect2160" /><rect
     width="7.9199109"
     height="278.22656"
     x="173.39888"
     y="110.88678"
     style="fill:#000000;fill-rule:evenodd;stroke:#000000;stroke-width:0.3128458px;stroke-linecap:butt;stroke-linejoin:miter;stroke-opacity:1"
     id="rect2164" /><path
     d="M 277.14286 315.21933 A 22.857143 22.857143 0 1 1  231.42858,315.21933 A 22.857143 22.857143 0 1 1  277.14286 315.21933 z"
     transform="matrix(0.4000699,0,0,0.4940512,103.85309,146.38815)"
     style="fill:#000000;fill-rule:evenodd;stroke:#000000;stroke-width:1px;stroke-linecap:butt;stroke-linejoin:miter;stroke-opacity:1;fill-opacity:1"
     id="path2170" /><path
     d="M 277.14286 315.21933 A 22.857143 22.857143 0 1 1  231.42858,315.21933 A 22.857143 22.857143 0 1 1  277.14286 315.21933 z"
     transform="matrix(-0.4000699,0,0,0.4940512,404.08114,46.166134)"
     style="fill:#000000;fill-rule:evenodd;stroke:#000000;stroke-width:1px;stroke-linecap:butt;stroke-linejoin:miter;stroke-opacity:1;fill-opacity:1"
     id="path2291" /><rect
     width="16.002796"
     height="278.08023"
     x="-376.43347"
     y="110.95992"
     transform="scale(-1,1)"
     style="fill:#000000;fill-rule:evenodd;stroke:#000000;stroke-width:0.44458407px;stroke-linecap:butt;stroke-linejoin:miter;stroke-opacity:1"
     id="rect2293" /><rect
     width="7.9199109"
     height="278.22656"
     x="-334.53537"
     y="110.88678"
     transform="scale(-1,1)"
     style="fill:#000000;fill-rule:evenodd;stroke:#000000;stroke-width:4.23288345;stroke-linecap:round;stroke-linejoin:round;stroke-miterlimit:4;stroke-dasharray:none;stroke-opacity:1"
     id="rect2295" /><path
     d="M 277.14286 315.21933 A 22.857143 22.857143 0 1 1  231.42858,315.21933 A 22.857143 22.857143 0 1 1  277.14286 315.21933 z"
     transform="matrix(-0.4000699,0,0,0.4940512,404.08115,146.38815)"
     style="fill:#000000;fill-rule:evenodd;stroke:#000000;stroke-width:1px;stroke-linecap:butt;stroke-linejoin:miter;stroke-opacity:1;fill-opacity:1"
     id="path2297" /></svg>