<?xml version="1.0" encoding="UTF-8" standalone="no"?>
<!-- Created with Inkscape (http://www.inkscape.org/) -->

<svg
   xmlns:dc="http://purl.org/dc/elements/1.1/"
   xmlns:cc="http://creativecommons.org/ns#"
   xmlns:rdf="http://www.w3.org/1999/02/22-rdf-syntax-ns#"
   xmlns:svg="http://www.w3.org/2000/svg"
   xmlns="http://www.w3.org/2000/svg"
   xmlns:sodipodi="http://sodipodi.sourceforge.net/DTD/sodipodi-0.dtd"
   xmlns:inkscape="http://www.inkscape.org/namespaces/inkscape"
   width="2000"
   height="3000"
   id="svg2984"
   version="1.1"
   inkscape:version="0.48.4 r9939"
   sodipodi:docname="reverse.svg">
  <defs
     id="defs2986" />
  <sodipodi:namedview
     id="base"
     pagecolor="#ffffff"
     bordercolor="#666666"
     borderopacity="1.0"
     inkscape:pageopacity="0.0"
     inkscape:pageshadow="2"
     inkscape:zoom="0.175"
     inkscape:cx="95.802502"
     inkscape:cy="1412.9583"
     inkscape:document-units="px"
     inkscape:current-layer="layer2"
     showgrid="false"
     inkscape:window-width="1440"
     inkscape:window-height="845"
     inkscape:window-x="0"
     inkscape:window-y="27"
     inkscape:window-maximized="1" />
  <metadata
     id="metadata2989">
    <rdf:RDF>
      <cc:Work
         rdf:about="">
        <dc:format>image/svg+xml</dc:format>
        <dc:type
           rdf:resource="http://purl.org/dc/dcmitype/StillImage" />
        <dc:title></dc:title>
      </cc:Work>
    </rdf:RDF>
  </metadata>
  <g
     inkscape:label="Layer 1"
     inkscape:groupmode="layer"
     id="layer1"
     transform="translate(0,1947.6378)"
     sodipodi:insensitive="true"
     style="display:inline">
    <path
       inkscape:connector-curvature="0"
       style="fill:#000000;fill-opacity:1;fill-rule:nonzero;stroke:none"
       d="m 912.2103,-1588.643 c -2.8484,0.056 -5.8904,0.232 -9.0624,0.5 -4.049,1.755 -7.9722,3.6302 -11.8126,5.625 -2.9482,-1.769 -7.1356,-1.4516 -9.1874,2.1874 -0.378,0.16 -0.8038,0.268 -1.1876,0.5 -13.0964,7.9188 -23.9454,17.3694 -33.3124,28.1249 -0.058,0.066 -0.13,0.122 -0.188,0.188 -11.3278,10.2888 -21.8176,21.6498 -31.6876,33.75 -20.1026,38.0218 -19.0566,81.0856 -20.5,122.875 -6e-4,0.02 8e-4,0.042 0,0.062 -1.7744,13.6427 -3.3812,27.2497 -5.125,40.7503 -10.5194,78.6254 -13.0632,157.9655 -12.625,237.1873 0.028,4.9352 4.771,6.4792 7.875,4.8126 -0.555,7.2544 -1.1324,14.5052 -1.6874,21.75 -0.5668,7.3988 9.8914,8.1504 10.4374,0.75 0.11,-1.501 0.2018,-2.9988 0.3126,-4.5 1.4442,12.6324 2.8378,25.2856 4.125,37.9374 -0.13,1.5602 -0.2506,3.1264 -0.375,4.6876 -2.92,38.9934 2.2298,77.74577 7.25,116.31237 6.7078,40.263 10.3872,80.8096 18.3124,120.875 0.5026,1.698 1.0458,3.3694 1.5626,5.0626 -10.5556,17.406 -20.9678,34.9184 -31.125,52.5624 -0.7052,1.1886 -1.4176,2.375 -2.125,3.5626 -6.4824,9.4438 -12.8778,18.9554 -19.125,28.5624 -22.675,37.668 -45.2016,75.4756 -69,112.4376 -17.9584,27.6066 -37.0496,54.9766 -46.6876,86.875 -11.59,34.3694 -24.6702,68.3726 -31.25,104.1874 -5.1744,33.5046 -8.7404,67.0774 -9.0624,101.0626 -0.4994,31.6868 1.6462,62.5306 11.25,92.375 0.2346,8.9164 1.2086,17.7544 3.125,26.5 3.2854,22.5036 7.3664,44.8214 13.625,66.4374 2.5306,19.5018 6.3484,38.611596 15.6874,56.437596 4.1736,6.907 8.641,13.6814 12.75,20.625 3.6138,8.007 7.3598,15.9368 11.25,23.8124 0.11,0.3366 0.2074,0.6612 0.3126,1 8.56,18.7282 17.8382,36.8909997 32.375,51.875 5.5432,3.6946 11.171,7.188 16.875,10.5 2.5142,4.0348 5.0958,8.0298 7.75,12 3.7054,5.5428 10.3026,3.1082 11.8124,-1.5 5.0356,7.5666 9.5726,15.4146 13.3126,23.75 3.8776,8.6424 16.7126,4.3538 12.75,-4.25 -1.7132,-3.7196 -3.5798,-7.3144 -5.5626,-10.875 3.202,1.2038 6.413,2.2998 9.6876,3.375 -4.5716,2.7902 -4.3012,11.2434 2.9374,12.5626 22.7728,4.1498 45.4002,8.0504 68.4376,10.375 12.8082,-0.09 25.5558,1.1366 38.25,2.5624 0.168,0.062 0.3298,0.126 0.5,0.188 18.3872,7.968 36.6136,11.6576 56.75,13.25 9.0052,0.7122 11.4088,-11.8244 3.4374,-13.125 6.3922,-1.326 12.7986,-2.9538 19.1876,-4.8126 13.8308,-3.5138 27.0321,-8.7118 40.3123,-13.5624 -3.3186,2.9674 -2.4868,8.6642 1.4376,10.625 -16.3349,3.9198 -32.9071,6.6766 -49.8749,7.625 -9.4074,0.5258 -7.512,13.9996 1.875,13.1874 48.4815,-4.194 93.8593,-21.8836 138.8121,-39.3124 7.1324,-2.5618 10.55,-3.7528 14.75,-5.25 2.0928,-0.02 4.2316,0.148 6.4376,0.5 0.3322,0.02 0.6676,0.04 1,0.062 5.168,16.2024 10.1136,32.4306 14.0624,49 6.5234,32.832004 12.7596,65.754204 17.9376,98.812404 -1.6284,1.1516 -2.7618,3.0934 -2.6876,5.875 0.8404,31.5034 1.2894,62.8708 -3.0624,94.1252 -4.988,35.412 -15.3624,69.72796 -26.25,103.68736 -10.8176,32.1706 -23.0458,63.5622 -38.9376,93.3124 -14.1154,12.1828 -28.3546,24.2074 -42.6248,36.25 -15.8628,13.3446 -30.76,27.5318 -45.3124,42.3126 -0.3348,0.076 -0.6632,0.176 -1,0.25 -23.8641,1.6484 -47.2613,6.398 -70.6875,10.9374 -30.6728,11.0336 -61.2798,9.2182 -92.875,5.4376 -11.6328,-1.6382 -22.5826,-4.2652 -33.0624,-7.8126 -4.353,-2.5556 -8.6048,-5.4072 -12.625,-8.75 -3.2162,-2.674 -6.659,-2.1154 -8.875,-0.124 -3.3592,-1.665 -6.714,-3.4242 -10,-5.3124 -8.113,-7.049 -15.3066,-14.832 -21.375,-23.75 -8.1138,-22.0568 -5.932,-46.4872 -5.25,-70.25 -0.14,-27.1794 2.9086,-53.1424 9.625,-79.3124 7.3352,-27.2486 24.7152,-44.454 45.25,-62.06256 19.194,-14.81466 40.5414,-16.27848 63.6874,-17.875 3.6384,-0.4241 7.2964,-0.69704 10.9376,-1 4.7512,2.31772 9.5982,4.91276 14.6874,7.625 8.6434,4.4058 15.1596,10.35734 20.625,17.18756 -0.186,-0.068 -0.3756,-0.12 -0.5624,-0.188 -2.2084,-0.5066 -4.416,-0.9344 -6.625,-1.375 -7.4806,-7.73944 -16.1398,-14.6885 -26.125,-20.62506 -25.6384,-2.22246 -42.999,8.01604 -54.6876,24.50006 -16.419,6.4062 -31.3026,17.0896 -43.75,33.375 -1.4768,2.8974 -2.916,5.8278 -4.25,8.75 -1.9644,2.1408 -3.8364,4.4194 -5.6874,6.6874 -19.99,37.1664 -22.3386,76.628 -7.5626,116.5624 8.592,16.2956 18.6478,27.996 30.8126,33.8126 9.4506,8.4788 21.2564,14.1628 38.0624,16 2.9998,0.046 5.9996,0.078 9,0.124 9.579,5.2592 21.0606,7.9014 35.0626,6.75 4.0598,-1.8468 7.976,-3.8576 11.75,-6 9.1682,0.152 18.3392,0.2774 27.5,0.4374 31.5254,-10.144 58.0358,-23.4594 78,-51.625 12.2277,-27.1534 18.2553,-51.7348 9.4999,-81.75 -7.9637,-26.803 -15.0071,-53.9946 -25.9375,-79.8124 -9.3066,-19.43002 -17.6104,-35.10436 -37.6874,-42.24996 -1.4392,-1.6596 -2.9074,-3.3506 -4.4376,-5 -72.6052,-51.8384 -138.9208,-31.2626 -188.375,39.87496 -12.8858,9.317 -25.1164,19.4158 -34.75,32.4376 -12.1938,17.0006 -24.169,34.1802 -34.5624,52.3748 -7.4654,14.5876 -13.9372,29.2826 -17.8126,45.3126 -2.7568,16.5894 -5.0856,33.1446 -2.9374,50 4.3058,19.0354 10.4862,36.9838 21.125,53.625 9.8598,20.3076 17.9804,41.6248 30.5624,60.4374 18.9288,21.915 37.58,43.537 66.6876,51.5626 1.6764,0.462 3.088,0.3774 4.25,-0.062 0.8908,0.8914 1.7694,1.8114 2.6874,2.6872 60.0576,27.67 126.2556,-2.3996 185.75,-20.125 49.6709,-18.3308 96.3547,-38.0454 129.2497,-81.9998 33.353,-45.8876 50.1556,-98.5248 64.375,-153.0626 14.7268,-55.5122 23.8712,-112.5497 21,-170.18736 -1.0196,-10.032 -2.271,-20.0668 -3.5624,-30.0624 0.078,-7.1272 0.192,-14.2468 0.25,-21.375 0.334,-20.8918 1.1374,-41.8542 -0.9376,-62.6876 -3.6184,-20.2668 -7.4944,-40.5764 -15.6874,-59.625004 -5.0058,-11.639 -10.069,-23.2602 -15,-34.9374 10.0516,0.5632 20.0568,0.6276 30,-1.3126 23.079,-8.8908 42.791,-21.5818 62.125,-37.3750003 7.3318,-5.9892 -1.1632,-16.5708 -8.375,-10.4374 -17.6596,15.0188003 -35.6412,27.3130003 -57.25,35.1250003 -6.792,1.042 -13.6,1.1826 -20.4376,0.9374 4.5416,-1.819 9.972,-4.0116 19.375,-7.75 7.2632,-2.8876 3.1316,-13.2164 -4.125,-10.3124 -18.5992,7.4428 -24.4214,9.8554 -29.3124,11.75 -1.7578,-4.3648 -3.5016,-8.7312 -5.1876,-13.125 17.495,-5.3416 35.103,-10.6392003 51.9376,-17.7500003 10.8322,-5.285 21.3952,-11.0597997 31.9374,-16.8749997 0.2992,0.602 0.6636,1.1836 1.125,1.6874 -0.07,0.074 -0.7322,0.7926 -0.75,0.8126 -6.7884,4.0356 -13.5744,8.0391997 -20.375,12.0623997 -7.0884,4.19360006 -2.2068,13.4138 4.4376,12.25 2.1984,2.3906003 6.0496,3.1736003 9.1874,-0.124 7.6248,-8.01519994 10.6688,-11.2288 12,-12.5 0.2706,-0.166 0.5418,-0.3342 0.8126,-0.5 -0.7706,0.9746 1.3416,-1.3374 0.25,-0.124 18.057,-11.0589997 36.3682,-21.7593997 54.3124,-32.9999997 18.4744,-13.952 34.3802,-30.9904 51.5626,-46.5 1.6956,-1.8512 3.3748,-3.7132 5.0624,-5.5624 1.0008,-0.5826 1.9104,-1.4712 2.625,-2.8126 0.044,-0.082 0.082,-0.168 0.124,-0.25 11.286,-12.422596 22.2756,-24.921396 32.3126,-38.437396 10.6916,-17.8462 13.1976,-36.4834 14.625,-56.6876 0.6496,-9.1966 -12.3126,-9.694 -13,-0.5 -1.322,17.6798 -3.3826,33.9462 -12.5,49.6876 -0.162,0.211 -0.3378,0.4142 -0.5,0.625 7.7524,-20.7972 12.775,-42.3952 13,-65.75 0.03,-26.069 -2.1192,-51.8514 -8,-76.9376 -2.9514,-41.5468 -11.1612,-81.2272 -30.625,-117.125 -1.575,-3.1966 -3.258,-6.2238 -5.125,-8.9374 -7.5672,-12.4726 -16.6098,-24.4826 -27.375,-35.875 -31.0886,-30.1084 -64.4006,-44.6988 -105.4376,-42.4376 -11.07,-2.9588 -22.8332,-4.788 -35.375,-5.375 -20.4594,-1.3774 -40.1584,-6.3154 -49.1874,1.9376 -0.208,-0.038 -0.4172,-0.086 -0.625,-0.124 0.068,0.19 0.116,0.3782 0.188,0.5624 -0.586,0.589 -1.0786,1.2198 -1.5626,1.9376 -14.2292,-2.6562 -28.6282,-3.3826 -43.625,0.3124 -25.6208,3.9924 -51.6784,7.134 -76.3747,15.1876 -14.4018,-63.5218 -33.0348,-125.777 -55.5624,-186.9376 -5.8664,-17.2102 -11.8282,-34.371 -17.75,-51.5624 7.7396,-11.004 15.4624,-21.9892 23.1874,-33 9.3654,-9.1868 18.1382,-18.9388 26.6876,-29.125 12.5404,-18.1056 22.914,-37.506 33.6874,-56.6876 1.5256,-0.7752 2.8085,-2.2596 3.3125,-4.5624 0.154,-0.7066 0.2832,-1.4184 0.4374,-2.125 1.9002,-3.3318 3.8568,-6.638 5.8126,-9.9376 8.1206,-14.494 15.4486,-29.3724 22.75,-44.3124 20.5968,-34.6272 41.0018,-69.2264 55.6248,-107 0.5588,-1.624 1.033,-3.24637 1.5624,-4.87497 -0.064,4.70017 -0.154,9.42097 -0.3124,14.12497 -3.4894,22.1794 -6.7418,44.3868 -12.5,66 -5.335,11.5828 -12.2,22.3848 -18.3124,33.6874 -5.5896,14.188 -14.9092,26.2834 -23.875,38.4376 -11.5088,15.791 -22.7204,31.7058 -34.8749,47 -12.3896,12.992 -23.5886,27.0488 -35.25,40.6874 -14.4668,18.0962 -27.9404,36.976 -42.1874,55.25 -5.228,6.7056 4.1324,14.0824 9.4374,7.4376 14.2954,-17.9058 28.0776,-36.2482 42.5626,-54 11.8342,-13.6942 23.24,-27.7296 35.6249,-40.9376 12.1428,-15.4598 23.4506,-31.4906 35.125,-47.3124 9.4566,-12.7692 19.4232,-25.3822 25.3122,-40.3126 6.4646,-11.8574 13.8788,-23.2626 18.9376,-35.75 5.7912,-22.835 9.4798,-46.1268 12.625,-69.5624 0.6032,-21.65537 0.2138,-43.26257 -0.625,-64.87497 0.5356,-3.6892 0.972,-7.42 1.375,-11.125 3.6024,1.6614 8.8182,-0.5944 8.3124,-6.125 -3.5052,-38.327 -1.3048,-18.5648 -6.8124,-59.3126 -0.176,-0.9598 -0.3856,-1.9152 -0.5626,-2.875 -0.4446,-28.5432 0.126,-56.9802 -1.625,-85.4374 4.3,13.2078 9.1572,26.1048 15.5626,38.125 -4.075,-0.154 -8.1644,3.6736 -6.0626,9.0624 1.8554,4.7568 3.7696,9.5558 5.625,14.3126 44.9386,16.6264 -15.5694,-72.6685 -19.5624,-106.4999 -8.5372,-19.6728 -17.2686,-39.2864 -26.375,-58.75 -7.6778,-41.5106 -11.43,-84.1411 -29.4998,-122.7503 -16.8066,-31.523 -34.14,-62.7668 -51.2499,-94.125 5.7726,-17.6381 5.0904,-32.7729 -12.125,-22.3749 -0.3366,-0.6228 -0.6638,-1.252 -1,-1.875 -4.4428,-8.2328 -16.2148,-1.4552 -11.5,6.625 0.7614,1.3052 1.4898,2.6315 2.25,3.9375 -1.0448,1.263 -2.0916,2.5416 -3.125,3.8124 -1.885,-5.033 -3.8372,-10.0227 -5.9376,-14.9999 3.9038,-11.4232 9.1634,-19.6066 -7.625,-18.125 -0.94,1.0888 -1.8264,2.2126 -2.75,3.3126 -8.9496,-9.2494 -19.3234,-11.9654 -33.5,-11.6876 z m -6.125,13.25 c 14.5418,-0.034 23.4242,-0.5744 31.5,8.5 -2.3548,3.0524 -4.6366,6.181 -6.875,9.3124 -4.7876,-4.673 -9.6706,-9.255 -14.625,-13.75 -7.041,2.9206 -11.254,8.6504 -13.5,16.125 -0.925,1.7312 -1.798,4.1115 -2.6874,6.8125 -9.8526,8.7776 -15.709,29.7274 -17.25,45 -4.2042,10.5198 -4.3084,15.0252 -2,15.375 -1.6504,5.7668 -3.4432,11.4848 -5.3126,17.1874 -12.9282,15.7036 -29.4614,45.3014 -29.625,63.625 -10.4302,22.1582 -53.7648,133.8863 -18.5,78.0003 -0.2362,0.8016 -0.4674,1.594 -0.6874,2.375 -7.347,18.5158 -13.2386,37.6494 -18.375,57.0624 -0.7324,-10.6106 -1.3204,-21.2572 -1.8126,-31.875 0.4114,-0.623 0.7618,-1.4092 0.9376,-2.3124 12.0196,-61.7986 24.0118,-124.4023 47.4374,-183.0627 12.4052,-27.2656 27.2022,-53.4276 37.4376,-81.6249 4.4944,-2.419 9.121,-4.6926 13.9374,-6.75 z m 1,13.875 c 2.707,2.3428 5.4072,4.7224 8.0626,7.125 -0.9702,-0.098 -2.2352,0.058 -3.875,0.5 -0.7912,-1.4786 -1.5322,-2.5942 -2.25,-3.375 -0.6214,-1.4668 -1.254,-2.8794 -1.9376,-4.25 z m -33.25,4.25 c -1.8902,4.667 -3.9154,9.2895 -6,13.8749 -2.913,-1.7508 -7.168,-1.5744 -9.8124,2.375 -12.168,18.1726 -23.4716,36.5152 -32.6876,56.3124 -0.8866,2.961 -1.789,5.918 -2.6874,8.875 0.8512,-2.9762 1.7552,-5.925 2.6874,-8.875 2.6166,-8.28 5.5154,-16.4714 8.875,-24.5 8.0556,-13.726 16.096,-26.5822 26.25,-37.625 4.3046,-3.662 8.7424,-7.1587 13.375,-10.4373 z m 110.5,3.8124 c 0.084,0.2236 -1.1722,2.2547 -2.875,4.9375 -0.2268,-0.4176 -0.4606,-0.8324 -0.6874,-1.25 2.2896,-2.5953 3.4928,-3.8745 3.5624,-3.6875 z m -40.8124,0.6876 c 0.14,0.8125 0.2862,1.6269 0.4374,2.4373 -0.514,1.5722 -0.4816,3.4416 0.5,5.4376 0.358,0.728 0.7058,1.459 1.0626,2.1874 0.042,0.188 0.082,0.3756 0.124,0.5626 -1.8608,-2.038 -3.7148,-4.0702 -5.625,-6.0626 1.157,-1.5308 2.3226,-3.046 3.5,-4.5623 z m -25.9376,0.6249 c 1.9246,1.7706 3.8038,3.563 5.6876,5.375 -0.6362,0.972 -1.2492,1.9586 -1.875,2.9374 -1.9532,-0.9586 -4.174,-1.1972 -5.875,-0.4374 1.4686,-3.3734 2.2714,-6.1162 2.0624,-7.875 z m 54.1876,12.625 c 0.7094,1.2286 1.4168,2.458 2.125,3.6874 -0.7034,1.3596 -1.305,2.712 -1.8126,3.9376 -0.9166,1.9812 -1.8382,3.954 -2.75,5.9374 -0.8338,-2.5902 -1.6876,-5.1716 -2.5624,-7.75 1.6512,-1.953 3.3164,-3.8836 5,-5.8124 z m -39.375,1.8124 c 4.128,4.342 8.1052,8.8396 11.875,13.5 -2.43,3.2784 -4.8756,6.5572 -7.25,9.875 -2.9052,-2.579 -7.858,-2.8538 -10.4376,1.875 -1.9286,3.5358 -3.821,7.09 -5.75,10.625 -0.515,-4.9056 -1.1408,-9.7486 -1.8124,-14.5624 4.0636,-7.3666 8.5942,-14.4622 13.375,-21.3126 z m 49.0624,15 c 16.055,28.1388 31.7395,56.499 46.8749,85.125 11.237,25.1366 16.6898,51.8876 21.3126,78.8753 -12.7556,-25.3186 -26.3186,-50.2275 -41.125,-74.3753 -5.9778,-16.2416 -12.0429,-32.4812 -19.0625,-48.3124 -4.7866,-9.5988 -9.4834,-19.215 -14.125,-28.875 2.011,-4.1684 4.0646,-8.2928 6.125,-12.4376 z m -30,8 c 1.0728,1.5148 2.099,3.0086 3.125,4.5626 0.4152,0.6286 0.9006,1.1338 1.375,1.5624 0.8124,2.1646 1.647,4.2862 2.5,6.4376 -7.286,16.1468 -14.448,32.3598 -21.75,48.5 -0.7708,1.7038 -0.7682,3.2674 -0.3124,4.5624 -1.5092,-0.5558 -3.377,-0.5352 -5.375,0.375 -14.9954,6.8326 -27.802,15.7806 -39.4376,26.125 0.086,-0.2066 0.162,-0.4184 0.25,-0.625 6.9892,-12.2138 14.1322,-24.2792 21.5626,-36.1874 0.325,2.0428 0.6674,4.027 0.875,5.875 0.8522,7.5878 11.4572,6.4716 10.6874,-1.125 -0.6346,-6.2638 -1.1832,-13.1014 -1.75,-20.0626 8.952,-13.6708 18.3044,-27.061 28.25,-40 z m -44.625,22.75 c 0.8168,3.8752 1.638,7.6546 2.4376,11.375 -9.2106,16.961 -18.3422,33.9474 -27.25,51.0626 -0.2642,0.12 -0.5464,0.2204 -0.8126,0.375 7.0304,-21.4902 15.7506,-42.395 25.625,-62.8126 z m -64.25,1.6876 c -17.4816,45.645 -27.913,93.6616 -37.3124,141.6877 0.028,-3.154 0.052,-6.2832 0.124,-9.4376 3.646,-22.709 7.9168,-45.2809 15.1874,-67.1877 5.7904,-18.0578 11.665,-36.1278 16.875,-54.375 1.6246,-3.6232 3.3468,-7.1656 5.125,-10.6874 z m 122,2.75 c 0.3622,0.8324 0.697,1.6694 1.0626,2.5 -1.7706,1.4004 -2.9016,3.6816 -2.625,6.125 -2.0074,1.8488 -3.0304,4.8902 -1.4376,8.3124 14.4054,30.951 30.4778,61.0426 45.7499,91.5627 14.6086,26.2094 25.4268,53.965 34.5,82.375 0.9328,8.1244 1.3312,16.2154 1.3126,24.3126 -1.83,1.4378 -2.8654,3.917 -1.6876,7 0.493,1.2902 1.0048,2.5844 1.5,3.875 -0.515,11.9504 -1.7966,23.904 -3.3124,36 -2.865,-0.4318 -6.0658,1.1982 -6.625,5.2499 -1.302,9.4312 -2.573,18.8186 -3.875,28.25 -0.4448,2.0194 -0.9128,4.0468 -1.375,6.0624 0.2812,-4.4832 0.5044,-8.9398 0.6874,-13.4374 0.078,-14.936 -0.2172,-29.8771 -0.375,-44.8125 0.5466,-16.2708 -4.4876,-31.7638 -8.375,-47.3124 -3.697,-18.8962 -8.607,-37.5036 -13.1874,-56.1876 -3.8218,-15.6802 -7.4217,-31.371 -11.6249,-46.9377 -3.5976,-16.2574 -13.0444,-29.7278 -21.4376,-43.6874 -2.0188,-2.1562 -1.908,-5.0786 -2.875,-7.625 -3.4066,-8.9708 -16.7076,-4.9758 -13,3.875 0.001,0 3.3928,11.7556 4.6876,11.25 7.6902,12.4288 16.4116,24.332 19.5624,39 4.2728,15.5401 7.9588,31.2505 11.75,46.9377 4.7568,18.9162 9.7593,37.7812 13.2499,57 3.6392,14.3996 8.4582,28.7274 7.875,43.8124 0.184,14.7976 0.4528,29.5757 0.5,44.3749 -0.682,18.2936 -1.9492,36.5002 -6.3124,54.375 -4.1116,16.5768 -8.5032,33.0026 -13.2499,49.5 -2.3512,10.1866 -4.6692,20.3656 -7.3126,30.4376 -4.0794,9.3776 -8.4174,18.6302 -12.9374,27.8124 -25.516,43.52117 -58.0188,82.24617 -84.875,124.93757 -8.4956,13.043 -16.8872,26.12 -25.25,39.25 -13.4992,-56.4702 -22.774,-113.7332 -32.25,-171.06257 -4.8674,-30.1732 -8.7092,-60.4146 -12.125,-90.75 0.2772,-1.69 0.5248,-3.3734 0.8124,-5.0624 3.7622,-25.1056 5.994,-50.6996 13.0626,-75.125 9.5658,-26.4851 19.3802,-52.8143 29.75,-78.9999 10.1312,-26.0474 19.5692,-52.6746 35,-76.1876 15.7016,-19.8689 31.3786,-38.6609 55.375,-49.0001 8.6756,-3.738 2.585,-15.8786 -6,-11.9376 -25.609,11.7564 -42.6838,32.0786 -59.75,53.5003 -16.2042,24.3212 -25.9672,51.9252 -36.4376,79 -10.2538,26.2774 -20.3816,52.5688 -30.0624,79.0623 -3.2108,10.772 -5.4258,21.7878 -7.25,32.875 -1.3494,-13.3924 -2.6682,-26.7866 -4,-40.1873 -0.162,-2.0022 -0.3392,-3.9978 -0.5,-6 0.7096,-3.4422 1.4714,-6.8822 2.25,-10.3126 4.4806,-18.215 9.3152,-36.2542 15.1874,-53.875 2.1758,0.128 5.0522,-0.7026 8.75,-2.6874 1.6136,-4.5364 3.3876,-8.9964 5.25,-13.5 2.2304,2.8796 7.4684,3.0644 9.125,-1.75 8.89,-25.8376 17.9824,-51.6092 27.875,-77.0627 15.851,-18.3824 33.5026,-34.2386 56.9376,-44.125 4.4438,-1.8746 5.1662,-6.0778 3.6874,-9.1876 2.4556,0.806 5.4096,0.02 6.9376,-3.3124 5.8922,-12.8344 11.7362,-25.6906 17.6874,-38.5 z m 65.3125,112.0001 c 8.8856,16.2516 17.3292,32.7972 25.375,49.5 1.522,8.6918 3.0844,17.3592 5,25.9376 2.2948,8.3794 4.366,16.798 6.3122,25.25 -3.4176,-10.8996 -7.027,-21.7668 -10.9372,-32.5 -2.3956,-5.773 -4.6772,-11.5552 -6.9376,-17.375 -0.024,-0.062 -0.038,-0.126 -0.062,-0.188 -0.3768,-1.4368 -0.7724,-2.9344 -1.1874,-4.375 -0.7868,-1.631 -1.5802,-3.2492 -2.375,-4.875 -5.1928,-13.7386 -10.1698,-27.5694 -15.1876,-41.375 z m 48.6872,100.25 c 2.5498,5.7722 5.0574,11.5326 7.5626,17.3126 1.9332,5.7576 3.7648,11.6184 5.5624,17.5 -2.2836,-0.028 -4.5914,1.1724 -5.625,3.4374 -2.2168,-12.8024 -4.669,-25.5666 -7.5,-38.25 z m -282.1247,3 c 0.9274,13.1986 1.9726,26.3738 3.0626,39.5626 -0.5282,2.7566 -1.0732,5.4868 -1.5626,8.25 -0.3318,-11.7816 -0.752,-23.5506 -1.625,-35.3126 -0.028,-4.1672 0.026,-8.3504 0.124,-12.5 z m 256.4999,37.4376 c 6.7576,18.7081 12.6704,37.7543 15.3748,57.5623 0.915,6.8662 1.8112,13.6668 2.5,20.5 -2.4728,-5.1264 -10.7684,-6.1442 -12.3122,1.0626 -2.8244,13.1826 -5.5574,26.3624 -8.3126,39.5624 -3.299,-2.0658 -8.2396,-1.3868 -9.75,3.8126 -16.1936,55.7466 -36.2726,110.2956 -56.8123,164.56237 -14.0522,39.8032 -31.6682,78.1518 -49.1876,116.5 -3.0044,6.5764 6.3014,10.8234 9.3126,4.25 17.651,-38.533 35.5106,-77.0246 50.0624,-116.875 16.7717,-43.5098 32.8071,-87.32697 47.9375,-131.43737 -7.7376,37.5372 -15.493,75.0884 -23.5626,112.56237 -1.269,0.569 -2.4118,1.6216 -3.125,3.375 -14.797,36.3784 -28.2961,73.427 -46.0623,108.5 -20.7814,35.3094 -44.566,68.5332 -68.6876,101.5626 -2.591,-7.8364 -5.078,-15.6928 -7.5624,-23.5626 0.5106,-0.4626 1.0048,-1.0068 1.4374,-1.6874 19.988,-31.4528 35.623,-64.9614 49.5,-99.3126 1.4764,-2.8158 2.9764,-5.6126 4.4376,-8.4374 26.8946,-53.949 51.1054,-108.9388 69.2499,-166.43757 10.4638,-47.6562 21.9834,-95.134 29.8124,-143.3124 2.129,-14.452 4.25,-28.6694 5.75,-42.7499 z m -249.3123,44.8749 c 1.6458,16.4214 3.2892,32.8572 5.125,49.25 -1.492,8.9728 -2.79,18.0018 -4,27 -1.6126,-13.8866 -3.2084,-27.7658 -4.5,-41.6876 -0.09,-1.3718 -0.168,-2.7528 -0.25,-4.125 1.0528,-10.159 2.2428,-20.3244 3.625,-30.4374 z m -16.125,27.75 c 0.134,2.525 0.2758,5.0384 0.4374,7.5624 0.158,1.6818 0.336,3.3814 0.5,5.0626 -0.274,3.013 -0.554,6.048 -0.8124,9.0624 -0.084,-7.216 -0.128,-14.4732 -0.124,-21.6874 z m 283.7497,10.75 c 0.8072,10.0168 0.9904,20.0712 -0.25,30.25 -1.1606,20.8304 -2.1906,41.532 1.125,62.25 -1.704,22.6526 -3.3662,45.6094 -9.8126,67.49997 -11.2644,24.0932 -23.0702,47.9388 -32.9372,72.6874 -5.764,11.5022 -11.3446,23.0932 -17.0626,34.625 -0.518,0.8648 -0.9828,1.7594 -1.5,2.625 4.506,-21.2186 9.0086,-42.4548 13.75,-63.625 14.981,-68.87337 28.8568,-138.15057 46.6874,-206.31237 z m -50.9998,35 c -2.2732,10.3698 -4.6026,20.7556 -6.875,31.125 -1.2488,-0.5882 -2.7412,-0.6636 -4.0626,-0.188 3.8864,-10.2232 7.5418,-20.5344 10.9376,-30.9374 z m 63.1248,12.125 c 0.3706,3.3374 0.7492,6.65 1.0624,10 0.566,14.5228 1.1006,29.002 1.5626,43.5 -0.8098,5.4028 -1.7522,10.8218 -2.875,16.1874 0.7718,-7.8488 1.3532,-15.674 2,-23.5 -2.3428,-15.3978 -2.3524,-30.777 -1.75,-46.1874 z m -268.6247,12.8124 c 2.1806,16.3408 4.5682,32.6506 7.25,48.9376 10.012,61.12117 20.1414,122.09517 35.0624,182.18737 -7.6672,12.1422 -15.2352,24.3258 -22.75,36.5626 -1.5122,-8.159 -2.8904,-16.3698 -4.125,-24.5626 4.0384,2.328 10.2338,-0.8686 8.6876,-7.0624 -8.3078,-33.2788 -18.5354,-66.3242 -16.5626,-101 -2.0006,-31.7762 -5.4206,-63.30097 -10.5,-94.74997 -0.18,-1.7724 -0.376,-3.541 -0.5624,-5.3126 1.0162,-11.6808 2.1376,-23.3678 3.5,-35 z m 153.3124,87.8126 c -6.2236,18.15797 -12.9008,36.19137 -22.125,53.06237 -12.1326,24.175 -23.9644,48.4678 -35.625,72.875 -3.1404,6.5732 3.0732,12.2446 7.875,10.625 -6.083,9.4804 -12.5928,18.7032 -19.6874,27.5626 -6.1378,8.274 -12.2148,16.5916 -18.25,24.9374 -2.915,-10.4968 -5.7034,-21.0744 -8.25,-31.6874 -1.047,-3.9268 -2.0004,-7.8772 -3,-11.8126 10.2308,-16.1448 20.59,-32.2396 31.125,-48.1874 21.5104,-33.297 45.878,-64.5202 67.9374,-97.37497 z m -5,47.24997 c -1.1734,3.2522 -2.3824,6.4998 -3.5624,9.75 -10.1598,22.7954 -20.859,45.4162 -33.5,66.875 10.0172,-21.8934 20.4498,-43.545 31.125,-65.125 2.0962,-3.7652 4.0794,-7.6312 5.9374,-11.5 z m 41.1875,54.875 c -4.1708,17.5822 -8.4073,35.1596 -12.8125,52.6874 -18.4126,30.9994 -37.2264,61.7594 -58.1874,91.125 -8.5748,8.8598 -17.6142,17.243 -27.375,25 -0.4278,-1.265 -0.824,-2.5468 -1.25,-3.8124 25.8408,-35.3894 51.4956,-70.9268 74,-108.625 9.644,-18.2998 17.819,-37.2378 25.6249,-56.375 z m -143.3749,56.25 c 0.164,0.6252 0.3344,1.25 0.5,1.875 0.1,0.419 0.212,0.831 0.3124,1.25 -0.6976,-0.4068 -1.4962,-0.6398 -2.3124,-0.6876 0.5044,-0.807 0.9946,-1.631 1.5,-2.4374 z m 50.5624,8.625 c -8.1166,14.7096 -16.4676,29.3338 -24.875,43.875 -0.7482,-2.5 -1.5176,-4.995 -2.25,-7.5 7.8192,-10.7846 15.7554,-21.468 23.75,-32.125 1.148,-1.4048 2.257,-2.827 3.375,-4.25 z m -48,1.6874 c 2.658,10.6756 5.4884,21.3116 8.5,31.875 -7.26,10.17 -14.4242,20.3904 -21.5,30.6876 -3.532,-9.891 -6.9934,-19.8286 -10.25,-29.8126 7.6234,-10.7524 15.2846,-21.4578 22.9376,-32.1874 0.132,-0.186 0.2042,-0.3774 0.3124,-0.5626 z m -31.9374,45.125 c 3.3516,10.0232 6.8612,19.9888 10.4374,29.9376 -12.2578,18.1432 -24.1994,36.5016 -35.75,55.125 -15.1556,23.395 -29.5366,47.238 -44.375,70.8124 -2.1506,-3.0336 -7.1726,-3.9794 -9.9374,0.4376 -4.8978,7.8242 -9.7898,15.6132 -14.6876,23.4374 -23.5546,45.0368 -45.258,91.0632 -62.5,138.8126 0.108,-1.3764 0.2034,-2.7492 0.3126,-4.125 6.2722,-38.1094 25.3802,-71.2166 42.375,-105.1876 24.6786,-54.2112 57.858,-103.47 91.375,-152.4374 5.852,-8.3442 11.7106,-16.656 17.5624,-25 4.6078,-6.57 -4.6472,-13.0736 -9.25,-6.5 -5.8684,8.3808 -11.7566,16.744 -17.625,25.125 -6.6196,9.6488 -13.229,19.2858 -19.75,29 7.5888,-12.4896 15.2128,-24.9556 22.6876,-37.5 9.5362,-14.1 19.3228,-28.0202 29.125,-41.9376 z m 44.625,1 c 0.9238,3.0922 1.8658,6.165 2.8124,9.25 -2.6334,4.5068 -5.2858,9.0032 -7.9374,13.5 -2.7052,-0.5492 -5.7738,0.4476 -7.5,3.875 -1.8224,3.6184 -3.6562,7.2056 -5.5,10.8126 -0.9162,-2.5208 -1.8356,-5.0414 -2.75,-7.5626 6.8656,-10.0254 13.8084,-19.9886 20.875,-29.875 z m 7.125,22.875 c 2.9408,9.2668 5.9208,18.5266 9,27.75 -6.6488,9.0784 -13.2704,18.199 -19.875,27.3126 -2.62,-7.7288 -5.3066,-15.4444 -8.0626,-23.125 6.3418,-10.6418 12.6602,-21.2624 18.9376,-31.9376 z m -36.5,19.5 c 0.5364,1.4806 1.0888,2.9566 1.625,4.4376 -1.322,0.4348 -2.6098,1.282 -3.625,2.875 -22.4458,35.2188 -40.1972,72.8718 -55.625,111.5 -19.1514,32.7002 -38.216,65.4662 -56.4376,98.6874 21.6712,-45.589 45.528,-90.062 68.625,-135.125 1.8424,-3.5946 0.5602,-6.6824 -1.8124,-8.3124 5.4088,-8.7434 10.8928,-17.4594 16.4374,-26.125 9.9336,-16.2078 20.2286,-32.1656 30.8126,-47.9376 z m 49.75,21 c 0.042,0.124 0.082,0.2502 0.124,0.375 -0.4404,0.415 -0.8742,0.8332 -1.3126,1.25 0.3962,-0.5422 0.7914,-1.0828 1.1876,-1.625 z m -40.4376,5.1876 c 2.5328,7.1802 5.1132,14.3316 7.5,21.5624 -4.4694,6.2464 -8.9288,12.504 -13.3124,18.8126 -3.1154,4.6832 -6.1658,9.4214 -9.25,14.125 -4.4632,4.9584 -8.9546,9.8672 -13.5,14.75 -2.4234,2.603 -2.3526,5.4958 -1.0626,7.6874 -17.5018,27.2148 -34.6374,54.622 -51.6874,82.125 2.2288,-6.3388 4.5048,-12.6258 6.8124,-18.9374 6.1054,-12.5788 12.3512,-25.12 18.75,-37.5626 15.6614,-30.5758 32.143,-60.6906 48.75,-90.75 2.3484,-3.925 4.654,-7.887 7,-11.8124 z m 44.375,9.1874 c -6.1202,8.7344 -12.215,17.4996 -18.3124,26.25 -0.6624,-1.8156 -1.3104,-3.631 -2,-5.4374 6.6884,-7.0182 13.4492,-13.9654 20.3124,-20.8126 z m 5.25,12.4376 c 5.0464,14.6072 10.129,29.2494 15.125,43.875 22.3302,61.2614 41.2646,123.4522 55.75,187 -1.0012,0.3948 -2.0044,0.7722 -3,1.1874 -6.1642,2.5708 -4.9236,9.323 -0.625,11.75 -3.7966,1.1532 -7.5416,2.3994 -11.3124,3.625 -5.4742,-19.4954 -10.8814,-39.0072 -16.625,-58.4374 -10.8486,-27.9138 -21.4076,-55.9006 -33.1876,-83.4376 -9.522,-25.746 -16.412,-52.398 -25.0624,-78.4374 6.2916,-9.0452 12.6058,-18.1076 18.9374,-27.125 z m -34.875,18.3124 c 0.9476,2.6026 1.8534,5.2556 2.75,7.875 -15.3018,22.056 -30.5198,44.1476 -45.375,66.5 -24.4434,34.7326 -49.0814,69.352 -73.375,104.1876 0.9568,-3.0162 1.9038,-6.0508 2.875,-9.0626 0.5712,-1.0066 1.1794,-1.993 1.75,-3 27.6092,-45.6292 55.383,-91.177 84.3126,-136 8.7596,-10.3998 17.8298,-20.5436 27.0624,-30.5 z m 7.1876,21.4376 c 7.364,23.3718 13.604,47.112 22.0624,70.125 11.8116,27.592 22.0964,55.7694 32.9376,83.75 5.7178,19.264 11.0888,38.5964 16.5,57.9374 -7.086,2.5368 -14.056,5.253 -20.9376,8.3126 -23.2664,10.4834 -47.1902,20.2524 -66.625,37.3124 -21.3556,19.0954 -40.7166,38.9256 -54.3124,64.625 -8.1424,17.3798 -15.5858,34.6856 -20.25,52.6876 -3.4796,-0.685 -7.5266,1.5018 -7.4376,6.5 0.15,8.3978 0.3186,16.7904 0.5626,25.1874 -1.5062,4.3714 -2.8834,8.819 -4.125,13.3126 -9.8062,37 -11.9656,72.0268 9.1874,105.5 16.6788,19.521 33.7444,34.486196 56.25,45.499996 17.076,13.6706 35.1144,23.377 56.5,29.3124 2.9514,0.819 5.403,-0.106 7.0626,-1.6874 15.6814,2.8454 31.0048,3.7376 46,1.8124 23.2488,3.901 47.1526,-0.138 70.5623,-2.125 33.1526,-10.9076 -0.048,-15.169 -20.5624,-17.0624 -2.3721,0.02 -4.7001,-0.056 -6.9999,-0.124 -0.8012,-4.1428 -5.4982,-7.6152 -10.5626,-4.5626 -2.006,1.2092 -3.9826,2.2618 -6,3.25 -2.7442,-0.3756 -5.455,-0.834 -8.125,-1.375 -0.65,-1.195 -1.7374,-2.232 -3.375,-3 -4.6674,-2.1888 -9.1658,-4.657 -13.5,-7.3124 18.3646,0.088 36.758,-0.058 55.1249,0.375 9.4244,0.2224 9.4268,-13.367396 0,-13.312596 -24.2909,0.142 -48.5887,0.8232 -72.8749,0.4376 -7.599,-5.9654 -14.8712,-12.3552 -22.0624,-18.875 -13.7818,-16.5854 -26.1214,-34.3928 -38.75,-51.875 -13.8204,-21.6464 -20.097,-46.3616 -27.125,-70.6876 -0.4592,-1.5894 -1.2778,-2.7944 -2.25,-3.625 -0.2502,-5.2058 -0.3976,-10.4664 -0.5,-15.6874 0.064,-3.063 0.12,-6.1248 0.188,-9.1876 3.3224,1.71 8.1254,0.4108 9,-4.8124 2.6682,-15.9342 5.2876,-31.8674 10.625,-47.1876 9.8828,-21.8836 21.2316,-41.1548 41,-56 16.7992,-13.0788 34,-25.6332 52.5624,-36.125 5.36,20.8974 8.8576,42.0896 14.5,63 9.5764,30.0404 21.823,58.932 35.1875,87.375 13.991,27.5536 24.2422,56.55 37.75,84.375 16.0458,27.0112 25.5254,57.2402 36.1872,86.624996 10.9764,31.2818 20.386,63.0346 31,94.4375997 0.2808,0.83060006 0.53,1.66960006 0.8126,2.50000006 -4.7774,2.31239994 -9.555,4.64879994 -14.375,6.87499994 -0.084,0.038 -0.166,0.086 -0.25,0.124 -36.3754,11.3588003 -73.4416,20.0948003 -111.3123,23.8124003 -4.3398,-0.3106 -8.708,-1.2062 -13.25,-3 -12.2902,-0.5342 -24.6814,-1.2028 -37.0624,-0.875 -32.6598,-6.603 -64.9554,-15.9848 -97.0626,-24.6874003 -30.0718,-16.3741997 -55.967,-39.7715997 -83.625,-60.1875997 -22.4496,-19.7148 -43.655,-41.153 -63.125,-63.999996 -0.078,-0.2936 -0.172,-0.5812 -0.25,-0.875 -16.805,-62.0024 -21.6624,-124.1574 -13.1874,-187.6874 7.0098,-43.6424 23.7442,-84.354 44.875,-122.75 -9.9364,33.6494 -19.7536,67.3124 -30.1876,100.8124 -2.2632,7.2666 8.2496,10.3884 10.3126,3.0626 12.732,-45.213 25.0982,-90.5626 38.5624,-135.5626 30.8338,-45.4552 62.6988,-90.2172 94.5,-135 13.1334,-20.0886 26.6068,-39.936 40.25,-59.6874 z m -117.5626,50.3124 c -25.214,51.9534 -51.1444,103.44 -72.3124,157.375 -6.6842,17.6934 -12.009,35.8262 -17.125,54 -6.1802,15.879 -12.0394,31.8528 -17.5626,48 0.3464,-9.3064 0.833,-18.587 1.4376,-27.875 3.394,0.6628 7.4232,-1.0362 8.5,-5.75 2.0434,-8.9464 3.5864,-17.9546 4.9374,-27 0.7346,-0.8358 1.3776,-1.8618 1.6876,-3.25 13.3578,-59.8378 37.2506,-116.1152 65.375,-170.25 2.59,2.7826 7.1288,3.4246 9.9374,-1 5.105,-8.0424 10.1264,-16.1474 15.125,-24.25 z m -69.1874,39.6876 c -16.8306,36.9378 -31.959,74.6208 -39.625,114.75 -6.6828,42.5762 -9.6376,85.4002 -10.1876,128.375 -3.4128,-2.4298 -9.2922,-0.6402 -9.1874,5.1874 0.2566,14.2698 0.5988,28.5456 1.0624,42.8126 -0.594,2.9706 -1.179,5.915 -1.6874,8.875 -2.3022,-16.6292 -2.8526,-33.5874 -2.5626,-50.8126 0.6376,-33.3086 4.295,-66.1556 9.4376,-99 6.059,-35.2996 19.2136,-68.663 30.4374,-102.5 4.9646,-17.0926 13.1492,-32.6674 22.3126,-47.6874 z m 59.875,28.6874 c -9.9924,22.1484 -19.6322,44.4518 -29,66.875 -6.9806,11.6454 -14.1904,23.1408 -21.8126,34.375 7.7246,-17.7342 15.8902,-35.2766 24.5626,-52.625 8.4806,-16.3676 17.2594,-32.543 26.25,-48.625 z m 413.0621,61.625 c 2.046,0.156 4.0634,0.3324 6.0626,0.5626 0.174,0.9966 0.663,1.9608 1.3124,2.875 -2.313,-0.9742 -4.7042,-1.8044 -7.125,-2.625 -0.08,-0.2738 -0.132,-0.5526 -0.25,-0.8126 z m 29.5,5.25 c 31.8462,9.1404 57.427,28.8418 80.125,56.375 0.8718,1.1258 1.6504,2.3032 2.5,3.4376 -3.5366,4.0402 1.014,9.4878 6.75,9.375 26.4508,38.6638 41.2592,81.8022 50.4376,127.6874 0.453,4.8798 0.8822,9.7994 1.25,14.6876 -0.036,16.8666 -0.8992,33.7046 -2.625,50.5624 -0.15,1.2982 -0.3286,2.5812 -0.5,3.875 -1.3174,-1.5822 -3.3044,-2.5214 -5.25,-2.5624 0.122,-25.2948 -2.5416,-50.4944 -9.8126,-75.1876 -0.7888,-2.6792 -2.4844,-4.14 -4.375,-4.625 -1.6616,-6.0248 -3.5066,-12.0324 -5.625,-17.9374 -3.309,-19.1354 -8.5234,-37.4266 -16.4374,-54.4376 4.8916,3.111 12.4146,-0.6908 9.6874,-7.625 -8.961,-22.7854 -22.6658,-38.2354 -39.8124,-49.3124 -0.615,-1.0646 -1.599,-1.9608 -3.0626,-2.6876 -3.7262,-1.8504 -7.5214,-3.6004 -11.3124,-5.25 -0.34,-0.162 -0.658,-0.3404 -1,-0.5 -0.7462,-0.3208 -1.5016,-0.624 -2.25,-0.9374 -3.2136,-1.4366 -6.5042,-2.8656 -9.875,-4.125 -9.8178,-9.6058 -20.5622,-18.1048 -32.8126,-25.5 -6.3704,-5.1794 -13.209,-9.7648 -20.5624,-13.5626 0.37,-0.022 0.7404,0 1.125,-0.062 4.5938,-0.807 9.065,-1.3268 13.4374,-1.6876 z m 36,2.375 c 5.1722,1.211 10.2116,2.7914 15.125,4.75 0.7796,2.0868 2.3834,4.044 4.9376,5.1876 19.671,8.8066 34.5494,22.2832 46,38.75 -2.8894,0.5202 -5.9502,1.4934 -9.1876,2.875 -1.2206,-1.6716 -2.4218,-3.3454 -3.6874,-5 -15.981,-19.4492 -33.4052,-35.2142 -53.1876,-46.5626 z m -110.75,3.3126 c 4.9424,-0.056 9.8106,0.174 14.5626,0.6874 4.271,1.2734 8.5064,2.5538 12.8124,3.75 7.364,2.9494 14.562,6.2938 21.625,9.875 -12.8536,-1.3452 -24.8434,-5.4536 -37.625,-10 -6.7512,-2.8478 -13.4948,-3.842 -20.25,-3.8124 1.398,-0.116 2.7912,-0.2562 4.1876,-0.375 1.575,-0.078 3.1344,-0.108 4.6874,-0.124 z m -20.75,1.4374 c -8.881,1.329 -17.8394,3.738 -26.875,5.5 -4.159,0.5244 -8.2784,1.0382 -12.4372,1.5626 -9.0406,1.1398 -7.4164,13.8836 1.6248,12.75 4.3514,-0.5458 8.6484,-1.0794 13,-1.625 17.1158,-3.1402 34.5842,-9.6444 51.3124,-3.3126 1.0032,0.4128 2,0.7936 3,1.1876 -0.058,0.7132 -0.076,1.4352 0.124,2.125 -3.0308,2.9498 -2.0644,9.1558 3.75,9.6874 42.435,3.88 21.1686,1.5324 63.875,6.9376 1.9396,0.4688 3.838,0.9494 5.75,1.4374 4.314,1.2508 8.5602,2.617 12.8126,4.0626 0.5792,0.382 1.1716,0.7418 1.75,1.125 7.2112,8.807 13.8376,18.2746 20.25,27.875 29.6688,45.7414 41.4122,97.3756 47.5624,150.6874 4.0106,38.691 2.1214,77.3066 -1.75,115.875 -0.152,1.51 0.13,2.742 0.6876,3.75 -8.3474,12.4848 -17.405,24.5978 -26.75,36.499996 -17.1724,21.1568 -38.908,35.7788 -61.875,49.6876 -3.3246,2.0132 -3.7244,5.281 -2.5,7.75 -5.6546,2.7496 -11.4224,5.1652 -17.5626,6.9374 -14.669,6.026 -28.7406,13.3686 -43.8124,18.3749997 -1.8874,0.881 -3.7472,1.7904 -5.625,2.6876 -4.0776,-11.9233997 -7.9166,-23.9399997 -11.75,-35.9375997 -2.1242,-7.7696 -4.139,-15.5464 -5.875,-23.4374 -19.2182,-66.784996 -40.92,-132.710796 -63.2498,-198.499996 -17.911,-61.3306 -35.5556,-122.842 -50.8749,-184.875 7.1908,-2.1228 14.4061,-4.2066 21.5623,-6.375 27.3192,-7.6486 55.6502,-10.15 83.8748,-12.4376 z m -115.9371,21.9376 c 15.194,62.0506 32.9909,123.5074 50.9373,184.8124 8.2872,24.3252 16.4668,48.6526 24.4376,73.0626 -0.4348,-0.7518 -0.8682,-1.503 -1.3126,-2.25 -13.3894,-27.8888 -23.5208,-56.9812 -37.625,-84.5 -13.1062,-27.6096 -24.9855,-55.7236 -34.1249,-85 -5.719,-21.8588 -9.007,-44.078 -15.1874,-65.75 0.872,-0.433 1.7462,-0.8278 2.625,-1.25 8.5144,-4.092 2.4502,-16.283 -5.9376,-11.9376 -0.124,0.064 -0.2508,0.124 -0.375,0.188 -0.188,-0.6654 -0.374,-1.3346 -0.5624,-2 5.6892,-1.871 11.3864,-3.6414 17.125,-5.375 z m -29.25,9.5624 c 0.3878,1.3774 0.7982,2.748 1.1874,4.125 -9.1664,5.278 -18.0556,11.018 -26.75,17 0.9686,-4.0892 -1.4612,-8.4662 -5.8124,-8 4.1872,-1.8998 8.3998,-3.7724 12.5624,-5.6874 6.1858,-2.6754 12.4714,-5.1534 18.8126,-7.4376 z m -252.9376,18.5 c 0.272,1.093 0.897,1.9816 1.6876,2.6876 -15.6204,32.3812 -27.6892,66.2732 -33.0626,102.25 -7.3908,57.1642 -4.8256,113.1884 7.375,169.0624 -2.2216,-2.8666 -4.461,-5.7192 -6.625,-8.625 -10.8202,-42.5908 -15.3308,-86.313 -16.6874,-130.8124 -0.126,-9.5026 -0.112,-19.0106 -0.062,-28.5 4.9936,-16.0622 10.234,-31.9848 15.8124,-47.8126 2.4478,-0.116 4.8302,-1.6142 5.625,-4.9374 2.3254,-9.723 4.6206,-19.4758 7,-29.1876 1.6242,-4.2148 3.2664,-8.4292 4.9376,-12.625 2.5086,1.0824 5.602,0.6474 7.8124,-2.5 2.0976,-2.9866 4.1352,-5.986 6.1876,-9 z m 199.625,5.125 c -10.6912,8.5362 -20.9478,17.5348 -31.9374,25.6876 -9.0728,7.7864 -18.4128,15.3218 -25.1876,25.3124 -0.02,-1.2024 -0.4426,-2.262 -1.125,-3.125 8.9138,-10.1208 18.7614,-19.4308 29,-28.625 8.9608,-7.7048 18.8876,-13.8306 29.25,-19.25 z m 401.1247,1.1876 c 0.9134,-0.034 1.758,0.028 2.625,0.124 4.0674,7.3574 7.6618,15.1224 10.75,23.25 2.7618,10.0824 5.1904,20.2414 7.375,30.4374 -7.4138,-18.175 -16.3776,-35.756 -27.4374,-52.5 2.3434,-0.8108 4.5988,-1.2372 6.6874,-1.3124 z m -382.8121,2.9374 c -7.1678,5.1526 -14.2392,10.3834 -21.25,15.75 -1.2416,0.927 -2.4442,1.9142 -3.625,2.875 5.6062,-4.7048 11.1466,-9.4886 16.875,-14.0624 1.8016,-3.5678 4.8952,-4.0906 8,-4.5626 z m 352.3747,12.6876 c 3.7488,4.2352 7.1256,8.9668 10.125,14.25 -3.0718,-4.8964 -6.4432,-9.6458 -10.125,-14.25 z m -377.6873,6.3124 c -6.3292,5.2048 -11.8246,10.8494 -16.6874,16.9376 2.6282,-3.2558 5.3482,-6.4832 7.875,-9.8126 2.946,-2.3698 5.9152,-4.696 8.8124,-7.125 z m 436.3123,10.8126 c 3.819,12.2004 6.2578,25.5522 8.25,35.9374 -0.2296,-0.02 -0.4574,0.052 -0.6876,0.062 -2.1982,-12.0448 -4.6946,-24.0824 -7.5624,-36 z m -453.3123,6.5 c -1.5478,1.9532 -3.0058,3.9676 -4.4374,6 1.3848,-2.0844 2.8712,-4.0474 4.4374,-6 z m 392.5623,10.0624 c 6.7046,12.8368 12.832,25.971 18.8124,39.1876 4.2174,8.8028 7.6752,17.782 10.5626,26.9374 1.7524,12.8616 2.737,26.0502 3.25,39.4376 0.17,4.4622 3.8982,6.1804 6.9374,5.3124 0.982,6.0934 1.8838,12.2332 2.6876,18.375 2.9678,17.3256 3.0876,34.0564 1.5,50.6876 -4.884,11.9334 -10.6718,23.4112 -17.125,34.5 2.7612,-33.7708 3.782,-67.5786 0.4374,-101.4376 -4.6124,-39.1088 -12.1478,-77.2318 -27.0624,-113 z m -424.0623,22.9376 c -1.0218,2.5538 -2.0492,5.1076 -3,7.6874 -0.6312,-0.07 -1.2636,-0.05 -1.875,0.062 1.5998,-2.6034 3.228,-5.1788 4.875,-7.75 z m -10.5624,17.375 c -1.1824,4.59 -2.725,9.1854 -1.875,14 -0.024,2.1864 -0.036,4.376 -0.062,6.5624 -0.6564,2.4676 -1.3218,4.9336 -1.9376,7.4376 -3.2346,25.191 -3.464,49.8754 1.0626,75.1874 0.6814,3.8102 3.2976,5.6764 6.0624,5.9376 0.5688,2.1952 1.1822,4.3838 1.875,6.5624 8.033,20.5718 18.3574,39.5504 32.4376,56.9376 11.3414,14.45 22.515,29.1078 34.5624,43 -2.0564,-0.134 -4.0698,-0.2584 -6.0624,-0.5 -14.9346,-9.0214 -28.5006,-20.4778 -41.125,-34.5626 -7.3496,-13.594 -11.2652,-28.8942 -16.0626,-43.8124 -1.8432,-5.7322 -7.762,-6.0838 -10.6874,-3.0626 -10.664,-28.8948 -13.5214,-59.976 -13.25,-92.375 0.02,-1.5462 -0.3714,-2.7534 -1.0626,-3.6874 5.2462,-12.1362 10.3258,-24.3278 15.5,-36.5 0.207,-0.3764 0.4158,-0.7504 0.625,-1.125 z m 512.9371,40 c 0.93,0.6842 2.0698,1.0002 3.1876,0.9374 1.0482,4.1186 1.9902,8.275 2.8124,12.4376 0.4196,8.5466 0.6598,17.146 0.75,25.8124 0.03,2.8254 1.5954,4.5262 3.5,5.125 0.8506,10.2792 1.183,20.6602 1.1876,31.0626 -2.093,-4.0254 -8.3866,-4.5166 -11.125,-0.25 1.0904,-11.5782 1.5186,-23.306 1.125,-35.3126 -0.3308,-6.4872 -0.7754,-13.0224 -1.25,-19.5 0.058,-6.7696 -0.028,-13.542 -0.188,-20.3124 z m -538.6871,22.0624 c 1.503,44.0062 10.2886,85.2254 38.0624,121.8126 2.9832,5.8168 6.4334,11.4378 10.5,16.6874 -6.7032,-3.693 -13.1696,-7.9072 -19.625,-12.4374 2.4506,-2.5268 3.0978,-6.893 -0.6874,-10.0626 -30.1716,-25.2638 -38.0796,-53.4984 -37.0626,-87.375 0.8478,-2.7708 1.7084,-5.5444 2.5,-8.3124 1.644,-6.8938 3.8714,-13.6636 6.3126,-20.3126 z m 549.4997,65.5 c -2.8622,32.875 -15.5058,62.0904 -31.1876,91 -2.2576,2.472596 -4.5532,4.880396 -6.875,7.312596 -7.1738,6.4762 -14.1346,13.2504 -21.125,19.9374 3.177,-5.5022 6.1728,-11.057 8.8126,-16.75 6.4034,-8.6256 12.4474,-17.475196 18.5,-26.374996 12.67,-17.8424 21.1604,-37.5408 28.4374,-58 1.9654,-5.5586 2.6724,-11.3424 3.4376,-17.125 z m -29.1876,5.5626 c -1.2428,6.0546 -2.6286,12.0624 -4.125,18.0624 0.34,-3.2836 0.6012,-6.5254 0.875,-9.8124 1.1306,-2.7166 2.2094,-5.4834 3.25,-8.25 z m -671.4997,39 c 0.976,1.3328 2.0128,2.612 3,3.9374 5.112,19.5164 11.5012,38.7814 19.4376,57.812596 0.6712,1.8004 1.3822,3.5796 2.0624,5.375 -7.4846,-12.5824 -13.5604,-25.660396 -18.5624,-39.124996 -2.458,-9.2192 -4.4024,-18.558 -5.9376,-28 z m 648.4997,8.0624 c -0.2888,1.2868 -0.5132,2.5852 -0.8124,3.875 -1.8566,5.4944 -4.0996,10.617 -6.5626,15.5 -11.6446,14.8504 -23.434,29.609796 -35.5624,44.062596 -5.116,4.5476 -10.4596,8.9918 -16,13.375 -0.148,0.08 -0.29,0.17 -0.4376,0.25 6.8204,-6.0718 13.2178,-12.6246 19.125,-19.9376 14.509,-18.389796 28.353,-37.236996 40.25,-57.124996 z m -486.7497,10.25 c 23.1404,17.1586 46.2498,31.974796 74.6876,36.374996 2.5432,1.1174 5.0956,2.1174 7.75,3 11.9118,6.6418 24.6456,11.97 38.375,16.125 -1.6848,0.5322 -2.8406,1.8376 -3.4376,3.4376 -9.3564,-0.082 -18.8862,-1.0006 -28.625,-1.9376 -16.5916,-3.3674 -30.8062,-9.7244 -43.875,-17.9374 -0.343,-1.6878 -1.573,-3.2584 -4,-4.1876 -1.8666,-0.7146 -3.707,-1.4304 -5.5,-2.1874 -10.334,-7.481996 -20.118,-16.079596 -29.9374,-25.249996 -1.9476,-2.4358 -3.7706,-4.8976 -5.4376,-7.4376 z m -139.9374,9.5626 c 1.3708,1.6632 2.7366,3.3504 4.125,5 2.206,8.3736 4.5426,16.673196 7.125,24.874996 -4.1996,-9.867196 -7.899,-19.856396 -11.25,-29.874996 z m 22.5,25.874996 c 15.1786,16.512 31.1966,32.2656 47.9374,47.0624 28.6996,21.4982 55.5404,46.59939976 87.75,62.3126 12.789,3.3186 25.5976,6.7948 38.4376,10.1874 -2.4454,-0.4672 -4.8824,-1.0092 -7.3126,-1.625 -14.6722,-3.8568 -29.457,-6.9072 -44.25,-9.9374 -14.8362,-8.7746003 -29.1756,-18.0586003 -43.375,-27.8126 -18.4558,-13.2082 -33.6552,-29.7252 -48.4374,-46.75 1.606,-1.6812 -16.9658,-17.4006 -17.0626,-17.5 -2.959,-3.0416 -6.3002,-2.573 -8.5,-0.5624 -1.852,-5.0714 -3.5314,-10.2154 -5.1874,-15.375 z m 11.4374,31.25 c 3.6834,2.9684 7.3136,5.9758 9.4376,10.5 15.2158,17.5558 30.8894,34.621 49.625,48.5623997 -3.0832,-1.8682 -6.1934,-3.7054 -9.4376,-5.4374 -14.8854,-5.9033997 -19.635,-6.0781997 -21.375,-3.4375997 -11.6238,-15.7224 -20.7808,-32.567 -28.25,-50.1874 z m 565.9373,4.4374 c 0.3378,0.5162 0.776,0.9816 1.25,1.375 -3.271,2.8398 -6.585,5.5814 -10,8.25 -1.4922,0.942 -3.005,1.8758 -4.5,2.8126 4.4986,-4.0708 8.8686,-8.2376 13.25,-12.4376 z m -571.7497,39.0626 c 0.5056,0.6628 0.9896,1.3404 1.5,2 0.4394,0.904 0.9308,1.7856 1.375,2.6874 -0.9522,-1.5572 -1.9526,-3.1146 -2.875,-4.6874 z m 3.625,6.3124 c 1.3118,2.6432 2.709,5.2519997 4.0624,7.8749997 -1.258,-1.9058 -2.5202,-3.7894 -3.6874,-5.7499997 -0.028,-0.689 -0.104,-1.3928 -0.375,-2.125 z m 33.125,18.1875997 c 11.3232,6.1562003 23.6726,9.5814003 36.1874,12.5000003 7.8968,5.698 15.3596,11.9136 22.4376,19.1874 12.1054,7.4436 23.8062,16.1086 36,23.5 -12.251,-1.6134 -24.4176,-3.6832 -36.5626,-6.0624 3.366,-3.2142 3.116,-9.7756 -3.125,-11.3126 -12.5602,-3.0932 -24.4358,-7.355 -35.875,-12.5624 -6.0318,-8.6406 -12.5036,-16.9888 -19.0624,-25.2500003 z M 1119.085,18.856866 c 1.5496,4.7078 3.0826,9.4152 4.625,14.125 -13.3582,-0.8428 -25.1774,4.5802 -37.6874,9.1876 -18.3892,7.8808 -37.8636,11.2092 -57.4998,13.9374 -3.5976,0.5732 -7.1526,1.1144 -10.75,1.6876 8.8996,-4.434 17.976,-8.5106 26.875,-12.9376 16.3832,-4.5544 31.5282,-12.0616 46.7498,-19.4374 9.2338,-2.1812 18.4532,-4.3866 27.6874,-6.5626 z m -312.3747,4.4376 c 3.7978,0.788 7.5798,1.5996 11.375,2.375 13.2112,7.0404 27.3212,12.644 39.0626,22.0624 4.072,4.6386 7.9816,9.1884 12.125,13.375 -21.9728,-7.5456 -40.5734,-23.2956 -60.3126,-35.625 -0.737,-0.7492 -1.5072,-1.4548 -2.25,-2.1874 z m 56.4376,12.375 c 0.4784,0.124 0.9592,0.2484 1.4374,0.375 20.5626,5.2636 41.7026,5.3848 62.75,5.3124 5.23,-0.3518 10.4544,-0.5 15.6876,-0.5 2.7292,0.4922 5.4528,0.9302 8.1874,1.375 -19.5952,9.0334 -39.9012,14.995 -61.125,18.875 -8.8322,-5.5314 -15.355,-13.184 -22.375,-21.5624 -1.4922,-1.3524 -2.9848,-2.6464 -4.5624,-3.875 z m 149.2499,7.25 c 1.1968,0.5584 2.6754,0.7646 4.375,0.375 -2.4216,1.1818 -4.8524,2.3162 -7.25,3.5624 -13.2059,4.7568 -26.4335,9.9344 -40.1249,13.625 -16.5494,4.1058 -32.4368,8.9938 -49.625,7 19.1876,-6.0142 37.6812,-14.4622 56.125,-23.25 1.0848,-0.08 2.1662,-0.162 3.25,-0.25 11.0346,2.3018 21.8525,0.31 33.2499,-1.0624 z M 853.3353,275.54447 c 20.469,-0.078 41.9822,6.6304 64.1876,20.9374 -13.4314,-0.2646 -26.886,0.058 -40.3126,1.0626 -15.58,-7.0808 -30.9672,-10.8456 -50.0624,-5.6876 -18.4422,6.281 -36.7104,13.1686 -53.8126,22.625 23.848,-25.0318 50.8798,-38.8276 80,-38.9374 z m 312.8747,24.75 c 0.5602,0.7592 1.2784,1.3556 2.0626,1.75 -2.2168,41.23776 -9.7534,82.09396 -20.25,122.06236 -14.2422,52.9418 -29.9768,104.5694 -62.9376,148.9374 -12.2852,16.3502 -26.5896,29.0966 -42.2498,39.625 4.0654,-3.993 5.1178,-5.49 18.0624,-20.1874 26.9916,-31.0162 50.8814,-63.9276 66.1874,-102.4376 1.7462,-4.4776 2.6236,-9.2194 2.8126,-13.4374 2.8506,-7.1062 2.041,-8.0482 -0.3126,-6.3126 -1.3456,-8.1098 -6.3972,-10.3948 -13.4374,4.8126 -6.4628,13.941 -12.5868,27.9574 -21.75,40.125 4.7092,-6.8136 7.4528,-11.925 4.8124,-16.625 16.5382,-30.739 29.4102,-63.178 40.8126,-96.375 10.7066,-33.4194 21.1118,-67.1274 26.1874,-101.93736 z m -261.4997,9.1249 c 8.1202,-0.0244 16.2668,0.20504 24.375,0.625 1.9618,0.59944 3.7322,1.26912 5.4376,2 18.3374,23.18066 27.512,47.27726 29.4374,71.37506 -5.7606,-15.1696 -15.9202,-27.5242 -31.0624,-37.0626 -8.4554,-14.47028 -17.457,-27.97274 -32.5,-36.87496 1.4368,-0.02 2.8758,-0.0582 4.3124,-0.0624 z m -111.75,9.8125 c -0.12,0.0926 -0.2546,0.1564 -0.375,0.25 -22.4724,19.40156 -41.3928,38.67136 -49.625,68.43756 -1.5476,6.206 -2.9102,12.3636 -4.125,18.5624 -2.8122,1.4808 -6.3964,4.2888 -10.8124,8.5624 -2.911,7.1126 -5.2798,14.3576 -7.25,21.625 4.067,-30.4572 13.5278,-60.2038 28.3124,-90.2498 7.7096,-5.7668 15.6856,-11.195 23.625,-16.68756 6.5806,-3.86432 13.3734,-7.30346 20.25,-10.5 z m 82.5,6.3125 c 2.581,1.73258 5.057,3.50004 7.4376,5.375 -8.6238,-0.8359 -17.1418,-1.03682 -25.5,-0.5 -0.4804,0.016 -0.9546,-0.0248 -1.4376,0 5.78,-2.32918 12.2542,-3.97386 19.5,-4.875 z m 41.9376,26.06246 c 1.8454,0.9078 3.6042,1.8372 5.3124,2.8126 2.8868,5.0656 5.6884,10.2508 8.75,15.375 0.8162,1.5092 1.5912,2.9568 2.25,4.4374 -3.1404,-4.2216 -6.4906,-8.2396 -10,-12.0624 -1.9374,-3.6206 -4.0368,-7.1326 -6.3124,-10.5626 z m -20.4376,3.4376 c 6.5372,4.1646 12.5456,9.281 18.0626,15.1874 1.2496,2.4538 2.4104,4.9692 3.5,7.5 -6.6342,-8.1642 -13.5016,-16.0208 -21.5626,-22.6874 z m -42.5,0.124 c 8.0554,0.03 16.4042,0.9162 25,2.5 16.1242,9.6462 27.0494,24.4166 38.375,38.9374 2.3096,2.961 5.3736,3.2024 7.75,2 2.3354,9.2098 3.8084,18.7182 4.5,28.375 -2.1904,4.75 -4.6966,9.5316 -7.3124,14.4374 0.5648,-6.2102 0.6236,-13.0156 0.062,-20.4374 -12.6692,-41.2596 -50.7422,-77.6918 -89.125,-37.625 -6.3342,11.2498 -11.173,22.7416 -14.1876,34.25 -0.2444,0.268 -0.3738,0.4132 -0.625,0.6874 -3.4166,8.2548 -6.0772,16.5468 -8.0624,24.75 -0.108,-0.7008 -0.208,-1.434 -0.3126,-2.125 -0.5562,-26.7674 1.4746,-52.9286 10,-73.6248 2.124,-2.9622 4.4564,-5.8478 7,-8.625 8.585,-2.4232 17.5738,-3.5352 26.9376,-3.5 z m -124.3124,7.375 c -21.134,50.606 -27.8644,100.7526 -19.3126,155.4998 0.6532,16.2178 3.1532,32.2742 6.1876,48.375 2.2382,6.4524 5.2008,12.1878 8.625,17.5 7.8432,27.613 18.4472,54.1184 35.4374,77.125 -18.194,-9.267 -31.46,-25.205 -44.875,-40.9374 -11.7276,-18.3278 -19.5228,-38.8408 -29.0624,-58.375 -10.5384,-15.3286 -15.0286,-32.4996 -19.6876,-50 -1.6698,-15.3256 0.2248,-30.3672 2.75,-45.4376 3.6388,-14.6968 10.176,-28.0048 16.625,-41.5624 9.9458,-17.6144 21.4634,-34.2118 33.3126,-50.5624 3.0702,-4.16 6.4418,-8.0166 10,-11.625 z m 76.4374,5.25 c -17.3298,28.7562 -19.9258,63.158 -13.375,100.6248 4.3574,20.548 10.4324,42.8936 21.25,60.375 -5.9236,0.615 -11.0268,-0.3274 -15.6874,-2.5 -8.617,-8.0928 -14.7386,-19.1102 -21.5,-32.0624 -11.6776,-37.6678 -8.4706,-73.1128 7.375,-107.8124 6.8884,-7.7526 14.2094,-13.915 21.9374,-18.625 z m 166.5626,5.4374 c 5.6118,16.8556 10.2582,34.0462 15.3124,51.0624 7.6076,26.5076 2.963,48.0472 -8.3124,71.875 -17.8784,24.9192 -40.9764,37.1462 -69.1876,45.5626 -2.2472,-0.086 -4.502,-0.114 -6.75,-0.188 34.0434,-26.9252 54.0274,-67.3546 65.125,-110.875 0.034,-0.4478 0.094,-0.8674 0.124,-1.3126 4.9782,-18.5128 6.4456,-37.3596 3.6876,-56.1248 z m -103.0626,6.375 c 19.7986,-0.056 33.8732,19.3768 41,44.875 0.4966,9.8896 -0.242,18.8684 -2.25,26.625 -1.2396,-34.5342 -10.473,-57.7502 -45.375,-55.375 2.0412,-0.7096 4.0908,-1.38 6.8126,-2.375 7.9416,-2.9028 3.1406,-14.5492 -4.5626,-11.0624 -14.2428,6.4464 -19.683,8.2554 -23.3124,10.5 0.625,-1.1208 1.2154,-2.262 1.875,-3.375 9.4298,-6.7824 18.0652,-9.7906 25.8124,-9.8126 z m 79.375,1.25 c 7.13,13.305 9.4996,29.5328 7.875,48.875 -2.186,8.5142 -4.8046,16.9268 -7.75,25.1874 -10.3648,22.0438 -25.6676,43.1548 -44.375,62.5626 -7.3394,4.1948 -14.1742,7.4736 -20.5624,9.875 1.1992,-0.5544 2.3916,-1.0602 3.625,-1.6876 39.751,-27.5252 68.0058,-68.8732 61.3124,-117.1874 1.8764,-9.0254 2.0634,-18.169 -0.124,-27.625 z m -98.0624,19.25 c -13.4134,22.8346 -21.1118,46.1564 -11.9376,67.9374 -0.3344,1.9572 0.3816,3.9478 2.5626,5.125 3.9556,7.142 9.8066,14.1208 18.0624,20.8126 6.8972,-0.148 13.2564,-0.813 19.0626,-2 -3.2378,2.7288 -6.5574,5.3742 -9.9376,7.9374 -6.4222,-0.8546 -13.1924,-2.5444 -20.25,-4.875 -20.9168,-22.6416 -24.925,-48.9266 -18,-74.8124 14.35,-14.8298 15.1706,-17.7318 20.4376,-20.125 z m 10.6874,6.125 c 29.011,-0.4094 35.4354,17.7186 34.1876,42.75 -13.2274,22.2994 -23.798,22.4784 -44.5,14.375 -8.484,-19.181 -3.1996,-37.174 10.3124,-57.125 z m 46.5626,45.5624 c -5.4824,20.2164 -19.9284,31.9792 -44.8126,29.9376 -0.999,-1.1488 -1.9124,-2.3024 -2.8124,-3.4376 20.4894,3.9732 33.6974,-0.5276 47.625,-26.5 z m 21.4374,1.5 c -0.11,1.6374 -0.226,3.2386 -0.375,4.875 -8.9676,25.7034 -22.9894,38.2606 -40.8124,41.5 15.7244,-13.459 29.7278,-28.7796 41.1874,-46.375 z m -112.3124,7.8126 c 3.2996,15.813 11.3434,30.9796 25.1874,44.8124 3.6952,1.9156 7.3738,3.4746 11,4.75 -3.819,2.5016 -7.6868,4.9218 -11.625,7.25 -13.3886,-7.68 -20.844,-25.43 -25.625,-44.5624 0.166,-3.9926 0.473,-8.091 1.0626,-12.25 z m 65.75,53.1874 c -0.6732,0.457 -1.3192,0.9276 -2,1.375 -8.5194,4.0752 -15.9768,6.0372 -22.5,6.25 3.7422,-2.4302 7.3754,-4.9758 11,-7.5624 4.6216,0.4836 9.12,0.453 13.5,-0.062 z m 184.1247,13 c -10.4854,14.2122 -22.434,24.808 -36.7498,32.375 7.8412,-7.3966 15.8152,-14.6322 24.0624,-21.625 4.1928,-3.6058 8.4508,-7.2 12.6874,-10.75 z m -171.1873,5.9376 c -3.7448,2.8264 -7.6776,5.3922 -11.8124,7.8124 -3.0614,-0.06 -6.1256,-0.14 -9.1876,-0.188 6.5516,-1.618 13.5322,-4.1106 21,-7.625 z m 184.4373,14.75 c -8.9714,12.6642 -18.7308,24.8216 -28.9998,36.6874 -20.4194,23.1606 -9.9842,12.3118 -31.375,32.6876 -3.0642,2.9186 -2.5496,6.5582 -0.5,8.75 -18.5286,9.6556 -38.3275,17.4192 -58.6249,25.125 -55.0602,16.2416 -121.1574,49.0486 -176.5,20.125 -12.0684,-12.5476 -21.4782,-26.5844 -29.125,-41.5626 2.3916,2.8636 5.0888,5.6492 8.0624,8.3126 35.0212,16.7936 70.1302,27.491 109.9376,21.375 46.444,-7.5306 91.7056,-18.2256 129.9373,-47.4376 16.553,-11.3374 35.283,-21.6588 43.125,-34 12.0908,-9.0796 23.2098,-19.4592 34.0624,-30.0624 z m -334.7497,12.375 c 1.1178,1.8356 2.3258,3.6434 3.625,5.4374 5.0916,3.3676 10.2038,6.5316 15.375,9.5 7.1692,6.072 14.939,11.671 23.1874,17 36.566,20.5572 79.2428,24.2442 120.4376,24.375 4.6754,-0.072 9.2958,-0.3692 13.8124,-0.875 15.3086,-0.5564 30.567,-2.4422 45.5626,-5.875 -17.3088,5.8012 -35.6626,8.9758 -53.75,12.8126 -30.624,7.6978 -59.3014,-0.198 -88.8126,-8.0626 -23.6618,-4.9164 -44.8858,-13.9998 -64.4374,-27.625 -5.906,-7.4862 -10.6628,-15.5778 -14.75,-24 -0.084,-0.9008 -0.168,-1.7836 -0.25,-2.6874 z m -13.8126,3.5624 c 0.5132,1.1462 1.0292,2.302 1.5626,3.4376 0.19,1.6274 0.3536,3.2636 0.5624,4.875 -0.7446,-2.7524 -1.4234,-5.5482 -2.125,-8.3126 z m 242.375,22.75 c -15.4432,8.0784 -31.661,13.9802 -49.1874,16.5 -13.2266,0.961 -26.552,0.8128 -39.9376,-0.875 15.6462,-0.538 31.1836,-2.8622 46.6876,-8.25 14.102,-2.6738 28.253,-5.283 42.4374,-7.375 z m -215.9374,14.4376 c 19.5058,12.2024 40.0636,21.1876 63.1874,25.75 31.3746,8.3996 62.4706,16.7006 95,8.0624 11.445,-2.3636 22.923,-4.5278 34.1876,-7.1874 -25.1172,10.0118 -51.9534,15.4278 -79.25,19.8124 -30.7002,4.5738 -58.488,-1.4692 -85.5,-12.9374 5.5952,0.174 9.3518,-7.6524 3.3124,-11.8126 -10.4678,-7.2106 -21.2482,-13.9502 -30.9374,-21.6874 z m 6,19.875 c 5.4462,3.8076 10.9674,7.5616 16.5,11.375 -3.6656,-1.6512 -7.2884,-3.4254 -10.9376,-5.25 -2.0408,-1.9792 -3.8716,-4.0228 -5.5624,-6.125 z"
       id="path2290" />
  </g>
  <g
     inkscape:groupmode="layer"
     id="layer2"
     inkscape:label="Border"
     sodipodi:insensitive="true">
    <rect
       style="opacity:0.34796238;fill:#000000"
       id="rect2984"
       width="50"
       height="3000"
       x="0"
       y="0" />
    <rect
       style="opacity:0.34796238;fill:#000000"
       id="rect2986"
       width="2000"
       height="50"
       x="0"
       y="0" />
    <rect
       style="opacity:0.34796238;fill:#000000"
       id="rect2984-1"
       width="50"
       height="3000"
       x="1950"
       y="0" />
    <rect
       style="opacity:0.34796238;fill:#000000"
       id="rect2986-1"
       width="2000"
       height="50"
       x="-2.3008157e-05"
       y="2950" />
  </g>
</svg>
