<?xml version="1.0" encoding="UTF-8" standalone="no"?>
<!-- Created with Inkscape (http://www.inkscape.org/) -->
<svg xmlns:dc="http://purl.org/dc/elements/1.1/" xmlns:cc="http://web.resource.org/cc/" xmlns:rdf="http://www.w3.org/1999/02/22-rdf-syntax-ns#" xmlns:svg="http://www.w3.org/2000/svg" xmlns="http://www.w3.org/2000/svg" xmlns:sodipodi="http://sodipodi.sourceforge.net/DTD/sodipodi-0.dtd" xmlns:inkscape="http://www.inkscape.org/namespaces/inkscape" width="383.10788" height="1141.0229" id="svg2" sodipodi:version="0.32" inkscape:version="0.44+devel" sodipodi:docbase="C:\Documents and Settings\James\デスクトップ" sodipodi:docname="clefs2.svg" inkscape:output_extension="org.inkscape.output.svg.inkscape" version="1.0">
  <defs id="defs4"/>
  <sodipodi:namedview id="base" pagecolor="#ffffff" bordercolor="#666666" borderopacity="1.0" gridtolerance="10000" guidetolerance="10" objecttolerance="10" inkscape:pageopacity="0.0" inkscape:pageshadow="2" inkscape:zoom="0.35" inkscape:cx="375" inkscape:cy="520" inkscape:document-units="px" inkscape:current-layer="layer1" inkscape:window-width="1152" inkscape:window-height="841" inkscape:window-x="0" inkscape:window-y="0"/>
  <g inkscape:label="Layer 1" inkscape:groupmode="layer" id="layer1" transform="translate(-563.46644,93.290748)">
    <path style="opacity:1;fill:#000000;fill-opacity:1;fill-rule:nonzero;stroke:none;stroke-width:16;stroke-linecap:round;stroke-miterlimit:4;stroke-dasharray:none;stroke-dashoffset:0;stroke-opacity:1" d="M 711.125,-93.28125 C 709.70073,-93.253339 708.17981,-93.16527 706.59375,-93.03125 C 704.5693,-92.153752 702.60769,-91.216147 700.6875,-90.21875 C 699.21336,-91.103256 697.11971,-90.944545 696.09375,-89.125 C 695.90482,-89.045297 695.69184,-88.990998 695.5,-88.875 C 688.95181,-84.915625 683.5273,-80.190323 678.84375,-74.8125 C 678.81485,-74.779316 678.77884,-74.751986 678.75,-74.71875 C 673.08615,-69.574355 667.8412,-63.893823 662.90625,-57.84375 C 652.85498,-38.832824 653.37793,-17.300931 652.65625,3.59375 C 652.65589,3.6041303 652.65661,3.61462 652.65625,3.625 C 651.76903,10.446234 650.96566,17.249715 650.09375,24 C 644.83404,63.31277 643.56209,102.98283 643.78125,142.59375 C 643.79491,145.06133 646.1667,145.83339 647.71875,145 C 647.44124,148.62722 647.1525,152.25265 646.875,155.875 C 646.5916,159.57445 651.82075,159.95022 652.09375,156.25 C 652.14912,155.49956 652.1946,154.75069 652.25,154 C 652.97211,160.31627 653.6689,166.64283 654.3125,172.96875 C 654.24774,173.74887 654.18728,174.53195 654.125,175.3125 C 652.66502,194.80923 655.23998,214.18542 657.75,233.46875 C 661.10391,253.60024 662.94361,273.87354 666.90625,293.90625 C 667.15751,294.75521 667.42912,295.59094 667.6875,296.4375 C 662.40974,305.1406 657.20364,313.89671 652.125,322.71875 C 651.77244,323.3131 651.41624,323.90626 651.0625,324.5 C 647.82135,329.22192 644.62363,333.97775 641.5,338.78125 C 630.16254,357.61525 618.89923,376.51906 607,395 C 598.02079,408.80332 588.47525,422.48834 583.65625,438.4375 C 577.86124,455.62225 571.32116,472.62387 568.03125,490.53125 C 565.44406,507.28356 563.66101,524.06998 563.5,541.0625 C 563.25029,556.90596 564.32318,572.32782 569.125,587.25 C 569.24229,591.70825 569.72934,596.12722 570.6875,600.5 C 572.3302,611.75184 574.37075,622.91078 577.5,633.71875 C 578.76538,643.46966 580.67425,653.02451 585.34375,661.9375 C 587.43055,665.39105 589.66422,668.77824 591.71875,672.25 C 593.52566,676.25355 595.39864,680.21841 597.34375,684.15625 C 597.39838,684.32457 597.44745,684.48685 597.5,684.65625 C 601.78008,694.02035 606.41915,703.10173 613.6875,710.59375 C 616.4591,712.44101 619.27307,714.18771 622.125,715.84375 C 623.38213,717.86115 624.6729,719.85865 626,721.84375 C 627.85276,724.61515 631.15134,723.39786 631.90625,721.09375 C 634.42407,724.87706 636.69256,728.80105 638.5625,732.96875 C 640.50132,737.28998 646.91886,735.14567 644.9375,730.84375 C 644.08093,728.98395 643.14762,727.18654 642.15625,725.40625 C 643.75726,726.00815 645.36275,726.55615 647,727.09375 C 644.71419,728.48885 644.84945,732.71544 648.46875,733.375 C 659.85513,735.44994 671.16886,737.40028 682.6875,738.5625 C 689.0916,738.51718 695.46541,739.13088 701.8125,739.84375 C 701.89689,739.87475 701.9774,739.90715 702.0625,739.9375 C 711.2561,743.92146 720.36929,745.76625 730.4375,746.5625 C 734.94016,746.9186 736.14195,740.65027 732.15625,740 C 735.35233,739.33696 738.55554,738.5231 741.75,737.59375 C 748.66539,735.83679 755.26609,733.23784 761.90625,730.8125 C 760.24689,732.29621 760.6628,735.14459 762.625,736.125 C 754.45751,738.08489 746.17145,739.46331 737.6875,739.9375 C 732.98379,740.20039 733.9315,746.93728 738.625,746.53125 C 762.86584,744.43417 785.55487,735.58945 808.03125,726.875 C 811.5974,725.59412 813.30626,724.99858 815.40625,724.25 C 816.45267,724.24122 817.52203,724.32405 818.625,724.5 C 818.79112,724.51031 818.95881,724.52053 819.125,724.53125 C 821.70901,732.63243 824.18184,740.74651 826.15625,749.03125 C 829.41797,765.44721 832.53605,781.90833 835.125,798.4375 C 834.31084,799.01323 833.74415,799.98414 833.78125,801.375 C 834.20142,817.12666 834.42593,832.81031 832.25,848.4375 C 829.75604,866.14355 824.56886,883.30149 819.125,900.28125 C 813.71625,916.3666 807.60211,932.0624 799.65625,946.9375 C 792.59851,953.02887 785.4789,959.04119 778.34375,965.0625 C 770.4123,971.73475 762.96374,978.82838 755.6875,986.21875 C 755.52012,986.25633 755.35595,986.30717 755.1875,986.34375 C 743.2554,987.16795 731.55686,989.54277 719.84375,991.8125 C 704.50734,997.3293 689.20378,996.42156 673.40625,994.53125 C 667.58983,993.71213 662.11498,992.39869 656.875,990.625 C 654.69852,989.34717 652.57265,987.92131 650.5625,986.25 C 648.9544,984.91296 647.23301,985.19222 646.125,986.1875 C 644.44544,985.35499 642.76806,984.47534 641.125,983.53125 C 637.06857,980.00678 633.47172,976.11526 630.4375,971.65625 C 626.38064,960.62781 627.47151,948.41268 627.8125,936.53125 C 627.74267,922.94155 629.26679,909.96008 632.625,896.875 C 636.29265,883.25078 644.98266,874.64803 655.25,865.84375 C 664.84702,858.43642 675.52075,857.70451 687.09375,856.90625 C 688.91291,856.6942 690.74188,856.55773 692.5625,856.40625 C 694.93812,857.56511 697.36166,858.86263 699.90625,860.21875 C 704.22796,862.42165 707.48603,865.39742 710.21875,868.8125 C 710.12577,868.77886 710.03095,868.75213 709.9375,868.71875 C 708.8333,868.46547 707.72952,868.25161 706.625,868.03125 C 702.88475,864.16156 698.55516,860.68703 693.5625,857.71875 C 680.74334,856.60752 672.06301,861.72677 666.21875,869.96875 C 658.00925,873.17191 650.5674,878.51361 644.34375,886.65625 C 643.60533,888.105 642.88573,889.57014 642.21875,891.03125 C 641.23653,892.10164 640.30049,893.24101 639.375,894.375 C 629.38008,912.95824 628.20574,932.68896 635.59375,952.65625 C 639.88974,960.80397 644.9176,966.65416 651,969.5625 C 655.7253,973.8019 661.62823,976.64387 670.03125,977.5625 C 671.53111,977.58551 673.03106,977.60181 674.53125,977.625 C 679.32069,980.25457 685.06148,981.57571 692.0625,981 C 694.09238,980.07661 696.05054,979.07117 697.9375,978 C 702.52167,978.07564 707.10717,978.13875 711.6875,978.21875 C 727.45025,973.14675 740.70541,966.48904 750.6875,952.40625 C 756.8014,938.82955 759.81527,926.53883 755.4375,911.53125 C 751.45567,898.12973 747.9339,884.53386 742.46875,871.625 C 737.81539,861.90997 733.66352,854.07283 723.625,850.5 C 722.90542,849.6702 722.17131,848.82471 721.40625,848 C 685.10364,822.08084 651.94586,832.36873 627.21875,867.9375 C 620.77588,872.59596 614.66051,877.6454 609.84375,884.15625 C 603.74686,892.65656 597.75924,901.24636 592.5625,910.34375 C 588.82981,917.63755 585.59396,924.98501 583.65625,933 C 582.27788,941.2947 581.11345,949.57228 582.1875,958 C 584.34039,967.5177 587.43068,976.49191 592.75,984.8125 C 597.67997,994.9663 601.74019,1005.6249 608.03125,1015.0313 C 617.49561,1025.9887 626.82124,1036.7997 641.375,1040.8125 C 642.21319,1041.0436 642.919,1041.0013 643.5,1040.7813 C 643.94539,1041.227 644.38476,1041.687 644.84375,1042.125 C 674.87252,1055.9599 707.97149,1040.9252 737.71875,1032.0625 C 762.55424,1022.8971 785.89619,1013.0398 802.34375,991.0625 C 819.02021,968.1187 827.42149,941.80015 834.53125,914.53125 C 841.89465,886.77505 846.46687,858.25633 845.03125,829.4375 C 844.52144,824.42149 843.8957,819.40406 843.25,814.40625 C 843.28895,810.84268 843.34592,807.28288 843.375,803.71875 C 843.54203,793.27285 843.94375,782.79166 842.90625,772.375 C 841.09699,762.24164 839.15907,752.08677 835.0625,742.5625 C 832.55962,736.74298 830.028,730.93244 827.5625,725.09375 C 832.58832,725.37542 837.59093,725.40763 842.5625,724.4375 C 854.10204,719.99211 863.95803,713.64658 873.625,705.75 C 877.29097,702.75539 873.04339,697.46458 869.4375,700.53125 C 860.60769,708.04073 851.61693,714.18778 840.8125,718.09375 C 837.41653,718.61484 834.01256,718.68509 830.59375,718.5625 C 832.86456,717.65298 835.57973,716.5567 840.28125,714.6875 C 843.9128,713.2437 841.84705,708.07931 838.21875,709.53125 C 828.91911,713.25265 826.00805,714.45901 823.5625,715.40625 C 822.6836,713.22386 821.81171,711.04067 820.96875,708.84375 C 829.71621,706.17303 838.52027,703.52418 846.9375,699.96875 C 852.35364,697.32634 857.63514,694.43886 862.90625,691.53125 C 863.05584,691.83234 863.23803,692.12306 863.46875,692.375 C 863.43409,692.41231 863.10262,692.77126 863.09375,692.78125 C 859.69956,694.79913 856.30656,696.80089 852.90625,698.8125 C 849.36199,700.90927 851.80285,705.51937 855.125,704.9375 C 856.22418,706.13275 858.1498,706.52427 859.71875,704.875 C 863.53113,700.86739 865.05315,699.26059 865.71875,698.625 C 865.85406,698.54198 865.98964,698.45793 866.125,698.375 C 865.73969,698.86225 866.7958,697.70628 866.25,698.3125 C 875.27853,692.78298 884.43414,687.43283 893.40625,681.8125 C 902.64339,674.83648 910.5963,666.31728 919.1875,658.5625 C 920.03528,657.63693 920.87492,656.70589 921.71875,655.78125 C 922.2191,655.48996 922.67392,655.04566 923.03125,654.375 C 923.05314,654.33392 923.07188,654.29108 923.09375,654.25 C 928.73672,648.0387 934.23154,641.78934 939.25,635.03125 C 944.59584,626.10822 945.84881,616.78959 946.5625,606.6875 C 946.88737,602.08917 940.4062,601.84051 940.0625,606.4375 C 939.40153,615.27735 938.37121,623.41059 933.8125,631.28125 C 933.7315,631.38675 933.64359,631.48836 933.5625,631.59375 C 937.43873,621.19516 939.95005,610.39624 940.0625,598.71875 C 940.07726,585.6843 939.0029,572.79309 936.0625,560.25 C 934.58682,539.47661 930.48195,519.63638 920.75,501.6875 C 919.96253,500.0892 919.12099,498.57557 918.1875,497.21875 C 914.40389,490.98247 909.8826,484.97754 904.5,479.28125 C 888.95576,464.22713 872.29971,456.9319 851.78125,458.0625 C 846.24623,456.5831 840.36461,455.66846 834.09375,455.375 C 823.86407,454.68633 814.01449,452.2173 809.5,456.34375 C 809.39607,456.32478 809.29138,456.30028 809.1875,456.28125 C 809.22153,456.37638 809.2455,456.4704 809.28125,456.5625 C 808.98826,456.857 808.74194,457.17239 808.5,457.53125 C 801.38533,456.20318 794.18588,455.83996 786.6875,457.6875 C 773.87701,459.68366 760.84817,461.25445 748.5,465.28125 C 741.29903,433.52036 731.98253,402.39284 720.71875,371.8125 C 717.78553,363.20737 714.80465,354.62701 711.84375,346.03125 C 715.71359,340.52928 719.57502,335.03672 723.4375,329.53125 C 728.12021,324.93789 732.50662,320.06187 736.78125,314.96875 C 743.05146,305.91597 748.23824,296.21584 753.625,286.625 C 754.38775,286.23741 755.02929,285.49521 755.28125,284.34375 C 755.35855,283.99046 755.42289,283.63457 755.5,283.28125 C 756.45011,281.61536 757.42833,279.96233 758.40625,278.3125 C 762.46656,271.06548 766.13054,263.62633 769.78125,256.15625 C 780.07969,238.84269 790.28229,221.54311 797.59375,202.65625 C 797.87322,201.84426 798.11024,201.0331 798.375,200.21875 C 798.34314,202.56893 798.29833,204.92931 798.21875,207.28125 C 796.47407,218.37096 794.84785,229.47467 791.96875,240.28125 C 789.30131,246.07268 785.86874,251.47374 782.8125,257.125 C 780.01769,264.21898 775.35783,270.2667 770.875,276.34375 C 765.12054,284.23926 759.51482,292.19667 753.4375,299.84375 C 747.24265,306.3398 741.64316,313.36821 735.8125,320.1875 C 728.57909,329.23559 721.84223,338.67551 714.71875,347.8125 C 712.10478,351.16532 716.78498,354.85368 719.4375,351.53125 C 726.58515,342.57839 733.47631,333.40719 740.71875,324.53125 C 746.63584,317.68415 752.33876,310.66647 758.53125,304.0625 C 764.60265,296.33262 770.25661,288.31716 776.09375,280.40625 C 780.8221,274.02166 785.80544,267.71518 788.75,260.25 C 791.98226,254.32131 795.68942,248.61874 798.21875,242.375 C 801.11442,230.9575 802.95868,219.31165 804.53125,207.59375 C 804.83284,196.76606 804.63814,185.96248 804.21875,175.15625 C 804.48659,173.31166 804.70477,171.44633 804.90625,169.59375 C 806.70745,170.42449 809.31541,169.29664 809.0625,166.53125 C 807.30989,147.36776 808.41004,157.24888 805.65625,136.875 C 805.56834,136.39508 805.46351,135.91742 805.375,135.4375 C 805.15265,121.16585 805.4385,106.94736 804.5625,92.71875 C 806.71244,99.322723 809.14104,105.7712 812.34375,111.78125 C 810.30632,111.70463 808.26154,113.61807 809.3125,116.3125 C 810.2402,118.69088 811.19732,121.09036 812.125,123.46875 C 834.59429,131.78203 804.3403,87.134493 802.34375,70.21875 C 798.07513,60.382442 793.70948,50.575643 789.15625,40.84375 C 785.3174,20.088496 783.44113,-1.2266969 774.40625,-20.53125 C 766.00293,-36.292819 757.33629,-51.914712 748.78125,-67.59375 C 751.66755,-76.412863 751.32647,-83.980299 742.71875,-78.78125 C 742.55052,-79.092654 742.38684,-79.407271 742.21875,-79.71875 C 739.99735,-83.835215 734.11134,-80.446357 736.46875,-76.40625 C 736.84949,-75.753742 737.21368,-75.090526 737.59375,-74.4375 C 737.07142,-73.805993 736.548,-73.166715 736.03125,-72.53125 C 735.08875,-75.047822 734.11272,-77.542653 733.0625,-80.03125 C 735.01434,-85.742851 737.64421,-89.834631 729.25,-89.09375 C 728.77998,-88.549434 728.33677,-87.987453 727.875,-87.4375 C 723.40013,-92.062157 718.21327,-93.420158 711.125,-93.28125 z M 708.0625,-86.65625 C 715.33334,-86.673275 719.77454,-86.943419 723.8125,-82.40625 C 722.63509,-80.880048 721.49413,-79.315753 720.375,-77.75 C 717.98122,-80.086532 715.5397,-82.377588 713.0625,-84.625 C 709.54195,-83.164708 707.43545,-80.299813 706.3125,-76.5625 C 705.84998,-75.696979 705.41343,-74.506757 704.96875,-73.15625 C 700.04246,-68.767431 697.11427,-58.292571 696.34375,-50.65625 C 694.24165,-45.396395 694.1896,-43.143616 695.34375,-42.96875 C 694.51857,-40.085344 693.6222,-37.226355 692.6875,-34.375 C 686.22333,-26.523255 677.9568,-11.724349 677.875,-2.5625 C 672.65991,8.516602 650.99258,64.380597 668.625,36.4375 C 668.50687,36.838376 668.39131,37.23451 668.28125,37.625 C 664.60781,46.88295 661.66198,56.449712 659.09375,66.15625 C 658.72762,60.850989 658.43358,55.52768 658.1875,50.21875 C 658.39314,49.907269 658.56841,49.514118 658.65625,49.0625 C 664.66608,18.16326 670.66216,-13.138564 682.375,-42.46875 C 688.57762,-56.101579 695.97611,-69.182517 701.09375,-83.28125 C 703.34102,-84.490785 705.65425,-85.627576 708.0625,-86.65625 z M 708.5625,-79.71875 C 709.91596,-78.547333 711.26604,-77.357579 712.59375,-76.15625 C 712.10872,-76.205139 711.47617,-76.127643 710.65625,-75.90625 C 710.26065,-76.645544 709.89021,-77.20337 709.53125,-77.59375 C 709.22057,-78.327115 708.90425,-79.033457 708.5625,-79.71875 z M 691.9375,-77.59375 C 690.99233,-75.260241 689.97974,-72.948986 688.9375,-70.65625 C 687.48095,-71.531629 685.35344,-71.443425 684.03125,-69.46875 C 677.94724,-60.382429 672.29544,-51.211115 667.6875,-41.3125 C 667.24422,-39.832077 666.79298,-38.35351 666.34375,-36.875 C 666.76933,-38.363164 667.22138,-39.837527 667.6875,-41.3125 C 668.99581,-45.452514 670.44522,-49.54824 672.125,-53.5625 C 676.15274,-60.425566 680.17297,-66.853674 685.25,-72.375 C 687.4023,-74.206042 689.62119,-75.95449 691.9375,-77.59375 z M 747.1875,-75.6875 C 747.22912,-75.575775 746.60133,-74.560195 745.75,-73.21875 C 745.63656,-73.427547 745.51964,-73.634927 745.40625,-73.84375 C 746.55107,-75.141443 747.15267,-75.780999 747.1875,-75.6875 z M 726.78125,-75.34375 C 726.85162,-74.937439 726.92434,-74.53029 727,-74.125 C 726.74295,-73.338916 726.75922,-72.40423 727.25,-71.40625 C 727.42901,-71.042235 727.60283,-70.676783 727.78125,-70.3125 C 727.80252,-70.218915 727.82223,-70.124781 727.84375,-70.03125 C 726.91342,-71.05022 725.98639,-72.066375 725.03125,-73.0625 C 725.60976,-73.827989 726.19254,-74.585546 726.78125,-75.34375 z M 713.8125,-75.03125 C 714.77477,-74.145928 715.71439,-73.249734 716.65625,-72.34375 C 716.33813,-71.857784 716.0317,-71.364449 715.71875,-70.875 C 714.74219,-71.354339 713.6318,-71.473611 712.78125,-71.09375 C 713.51559,-72.780478 713.917,-74.151799 713.8125,-75.03125 z M 740.90625,-68.71875 C 741.26102,-68.104479 741.61464,-67.48973 741.96875,-66.875 C 741.61707,-66.195292 741.31624,-65.519009 741.0625,-64.90625 C 740.60414,-63.915601 740.14336,-62.929278 739.6875,-61.9375 C 739.27058,-63.23264 738.84372,-64.523356 738.40625,-65.8125 C 739.23186,-66.789071 740.06449,-67.754351 740.90625,-68.71875 z M 721.21875,-67.8125 C 723.28281,-65.641517 725.27136,-63.392794 727.15625,-61.0625 C 725.94132,-59.423317 724.71845,-57.783941 723.53125,-56.125 C 722.07868,-57.414561 719.60226,-57.551917 718.3125,-55.1875 C 717.34818,-53.419696 716.40201,-51.642522 715.4375,-49.875 C 715.18,-52.327838 714.86706,-54.749335 714.53125,-57.15625 C 716.56305,-60.839568 718.82837,-64.387321 721.21875,-67.8125 z M 745.75,-60.3125 C 753.77749,-46.243157 761.61974,-32.063019 769.1875,-17.75 C 774.80598,-5.1817192 777.53242,8.1937583 779.84375,21.6875 C 773.46598,9.0282253 766.68444,-3.4261148 759.28125,-15.5 C 756.29239,-23.620882 753.25974,-31.740601 749.75,-39.65625 C 747.35671,-44.455687 745.00829,-49.263786 742.6875,-54.09375 C 743.69302,-56.177986 744.71981,-58.240161 745.75,-60.3125 z M 730.75,-56.3125 C 731.28635,-55.555129 731.79947,-54.808202 732.3125,-54.03125 C 732.52006,-53.716911 732.76273,-53.464314 733,-53.25 C 733.4062,-52.16772 733.82351,-51.106982 734.25,-50.03125 C 730.60702,-41.957827 727.02594,-33.851333 723.375,-25.78125 C 722.98959,-24.929319 722.99085,-24.147518 723.21875,-23.5 C 722.46416,-23.777925 721.53027,-23.767687 720.53125,-23.3125 C 713.03356,-19.896273 706.63029,-15.422241 700.8125,-10.25 C 700.85599,-10.353307 700.89394,-10.459218 700.9375,-10.5625 C 704.43205,-16.669484 708.00353,-22.702114 711.71875,-28.65625 C 711.8813,-27.634815 712.05247,-26.642742 712.15625,-25.71875 C 712.58236,-21.924839 717.88486,-22.482934 717.5,-26.28125 C 717.18266,-29.413098 716.90841,-32.831993 716.625,-36.3125 C 721.10102,-43.147952 725.7772,-49.843094 730.75,-56.3125 z M 708.4375,-44.9375 C 708.84587,-42.999971 709.25643,-41.110243 709.65625,-39.25 C 705.05102,-30.769507 700.48517,-22.276376 696.03125,-13.71875 C 695.8992,-13.658845 695.75803,-13.608561 695.625,-13.53125 C 699.14018,-24.27637 703.5003,-34.72875 708.4375,-44.9375 z M 676.3125,-44.09375 C 667.57165,-21.271231 662.35599,2.7370173 657.65625,26.75 C 657.67001,25.173029 657.68255,23.608487 657.71875,22.03125 C 659.54175,10.67678 661.67718,-0.6091804 665.3125,-11.5625 C 668.20772,-20.591404 671.14496,-29.626496 673.75,-38.75 C 674.56232,-40.561671 675.42333,-42.332849 676.3125,-44.09375 z M 737.3125,-42.71875 C 737.49353,-42.302512 737.66096,-41.884071 737.84375,-41.46875 C 736.95846,-40.768593 736.39299,-39.627984 736.53125,-38.40625 C 735.52762,-37.481813 735.01609,-35.961117 735.8125,-34.25 C 743.0152,-18.77458 751.05139,-3.7287229 758.6875,11.53125 C 765.99181,24.635965 771.40085,38.51375 775.9375,52.71875 C 776.40389,56.780898 776.60306,60.826436 776.59375,64.875 C 775.67876,65.593994 775.16111,66.833523 775.75,68.375 C 775.99645,69.020122 776.25242,69.667247 776.5,70.3125 C 776.24243,76.287717 775.60169,82.264585 774.84375,88.3125 C 773.41132,88.096697 771.81091,88.911664 771.53125,90.9375 C 770.88027,95.65311 770.24474,100.34689 769.59375,105.0625 C 769.37134,106.07227 769.1374,107.08595 768.90625,108.09375 C 769.04687,105.85215 769.15852,103.62389 769.25,101.375 C 769.28915,93.9071 769.14141,86.436412 769.0625,78.96875 C 769.33579,70.83338 766.81869,63.086829 764.875,55.3125 C 763.02647,45.86442 760.57149,36.56071 758.28125,27.21875 C 756.37034,19.37869 754.57034,11.533305 752.46875,3.75 C 750.66993,-4.378699 745.9466,-11.113938 741.75,-18.09375 C 740.74059,-19.171843 740.79598,-20.633016 740.3125,-21.90625 C 738.60919,-26.391677 731.95871,-24.394118 733.8125,-19.96875 C 733.81301,-19.967529 735.50886,-14.090966 736.15625,-14.34375 C 740.00136,-8.129341 744.36204,-2.1777561 745.9375,5.15625 C 748.07392,12.92622 749.91689,20.7815 751.8125,28.625 C 754.19084,38.0832 756.69214,47.515609 758.4375,57.125 C 760.25711,64.32489 762.66657,71.48873 762.375,79.03125 C 762.46672,86.43004 762.60139,93.819167 762.625,101.21875 C 762.28399,110.36558 761.65038,119.4689 759.46875,128.40625 C 757.41297,136.69464 755.21714,144.90757 752.84375,153.15625 C 751.66817,158.24952 750.50921,163.33908 749.1875,168.375 C 747.14774,173.0639 744.97874,177.69014 742.71875,182.28125 C 729.9608,204.04184 713.70941,223.40435 700.28125,244.75 C 696.03345,251.27153 691.8377,257.81006 687.65625,264.375 C 680.90663,236.13997 676.2693,207.50844 671.53125,178.84375 C 669.09761,163.75716 667.17668,148.63649 665.46875,133.46875 C 665.60741,132.62376 665.73122,131.78207 665.875,130.9375 C 667.75604,118.38477 668.87195,105.58775 672.40625,93.375 C 677.18913,80.1324 682.09633,66.967832 687.28125,53.875 C 692.34687,40.85139 697.06587,27.53775 704.78125,15.78125 C 712.6321,5.84688 720.47054,-3.5491522 732.46875,-8.71875 C 736.80654,-10.587746 733.76132,-16.658092 729.46875,-14.6875 C 716.6643,-8.809389 708.12691,1.3517211 699.59375,12.0625 C 691.49167,24.22314 686.61018,38.025199 681.375,51.5625 C 676.24803,64.70122 671.18415,77.84691 666.34375,91.09375 C 664.7384,96.479801 663.63087,101.98766 662.71875,107.53125 C 662.04409,100.8351 661.38473,94.137952 660.71875,87.4375 C 660.63802,86.436481 660.54915,85.438669 660.46875,84.4375 C 660.82359,82.71646 661.20449,80.996433 661.59375,79.28125 C 663.83405,70.173776 666.25142,61.154129 669.1875,52.34375 C 670.27537,52.408001 671.71356,51.992483 673.5625,51 C 674.36923,48.73188 675.25625,46.50187 676.1875,44.25 C 677.30263,45.689886 679.9217,45.782297 680.75,43.375 C 685.19498,30.456284 689.74114,17.570424 694.6875,4.84375 C 702.61298,-4.347412 711.43873,-12.275535 723.15625,-17.21875 C 725.37814,-18.156087 725.73937,-20.257696 725,-21.8125 C 726.2278,-21.409574 727.70482,-21.804781 728.46875,-23.46875 C 731.41488,-29.885976 734.33689,-36.314054 737.3125,-42.71875 z M 769.96875,13.28125 C 774.41153,21.407059 778.63333,29.67981 782.65625,38.03125 C 783.41723,42.377159 784.19843,46.710837 785.15625,51 C 786.30376,55.189782 787.33936,59.39905 788.3125,63.625 C 786.60365,58.175259 784.79883,52.741706 782.84375,47.375 C 781.64599,44.488593 780.50518,41.597442 779.375,38.6875 C 779.3631,38.656871 779.35564,38.624381 779.34375,38.59375 C 779.15533,37.875274 778.95756,37.126502 778.75,36.40625 C 778.35665,35.590746 777.95991,34.781646 777.5625,33.96875 C 774.96613,27.099438 772.47765,20.183996 769.96875,13.28125 z M 794.3125,63.40625 C 795.58739,66.292395 796.84118,69.172516 798.09375,72.0625 C 799.06041,74.941298 799.97618,77.871734 800.875,80.8125 C 799.73316,80.798122 798.57932,81.398777 798.0625,82.53125 C 796.95408,76.130068 795.72799,69.747925 794.3125,63.40625 z M 653.25,64.90625 C 653.71371,71.505573 654.2363,78.093169 654.78125,84.6875 C 654.51714,86.06583 654.24465,87.430997 654,88.8125 C 653.83413,82.921734 653.62397,77.037276 653.1875,71.15625 C 653.17322,69.072693 653.20092,66.981016 653.25,64.90625 z M 781.5,83.625 C 784.87877,92.979188 787.83523,102.5023 789.1875,112.40625 C 789.64499,115.83939 790.09312,119.23964 790.4375,122.65625 C 789.2011,120.09308 785.05322,119.58415 784.28125,123.1875 C 782.86909,129.77889 781.50253,136.3687 780.125,142.96875 C 778.4755,141.93588 776.00519,142.27533 775.25,144.875 C 767.15314,172.74838 757.11363,200.02286 746.84375,227.15625 C 739.81769,247.05786 731.00968,266.23211 722.25,285.40625 C 720.74778,288.69447 725.40069,290.81794 726.90625,287.53125 C 735.73179,268.2648 744.66156,249.01896 751.9375,229.09375 C 760.32335,207.33882 768.34105,185.43022 775.90625,163.375 C 772.03743,182.14361 768.15975,200.91922 764.125,219.65625 C 763.49045,219.94075 762.91911,220.46704 762.5625,221.34375 C 755.16397,239.53297 748.41436,258.05722 739.53125,275.59375 C 729.1406,293.24848 717.24827,309.86032 705.1875,326.375 C 703.89198,322.45681 702.64852,318.5287 701.40625,314.59375 C 701.66161,314.36242 701.90868,314.0904 702.125,313.75 C 712.11902,298.02367 719.9365,281.26932 726.875,264.09375 C 727.61318,262.68586 728.3632,261.2875 729.09375,259.875 C 742.54108,232.9005 754.64647,205.40565 763.71875,176.65625 C 768.95063,152.82816 774.71052,129.08927 778.625,105 C 779.68945,97.7741 780.75001,90.665407 781.5,83.625 z M 656.84375,106.0625 C 657.66668,114.27324 658.48839,122.49116 659.40625,130.6875 C 658.66027,135.17398 658.01125,139.68843 657.40625,144.1875 C 656.59994,137.24422 655.80209,130.30465 655.15625,123.34375 C 655.11086,122.65787 655.07183,121.96732 655.03125,121.28125 C 655.5577,116.20173 656.15268,111.11906 656.84375,106.0625 z M 648.78125,119.9375 C 648.84824,121.2001 648.91919,122.45679 649,123.71875 C 649.07899,124.55967 649.16803,125.40941 649.25,126.25 C 649.113,127.75653 648.97301,129.27401 648.84375,130.78125 C 648.80185,127.1733 648.7794,123.5447 648.78125,119.9375 z M 790.65625,125.3125 C 791.05989,130.32094 791.1515,135.34813 790.53125,140.4375 C 789.95096,150.85273 789.43596,161.2036 791.09375,171.5625 C 790.24179,182.88888 789.41067,194.36729 786.1875,205.3125 C 780.55522,217.35914 774.6523,229.28191 769.71875,241.65625 C 766.8368,247.40736 764.04645,253.20288 761.1875,258.96875 C 760.92851,259.40116 760.69612,259.8485 760.4375,260.28125 C 762.69044,249.67191 764.9418,239.05387 767.3125,228.46875 C 774.80294,194.03202 781.74091,159.39348 790.65625,125.3125 z M 765.15625,142.8125 C 764.01965,147.99746 762.855,153.19034 761.71875,158.375 C 761.09439,158.081 760.34819,158.04329 759.6875,158.28125 C 761.63067,153.16959 763.4584,148.01396 765.15625,142.8125 z M 796.71875,148.875 C 796.90405,150.54379 797.09337,152.20004 797.25,153.875 C 797.53295,161.13644 797.8003,168.37604 798.03125,175.625 C 797.6264,178.32647 797.1552,181.03591 796.59375,183.71875 C 796.97964,179.79433 797.27034,175.88176 797.59375,171.96875 C 796.42242,164.26985 796.4176,156.58025 796.71875,148.875 z M 662.40625,155.28125 C 663.49659,163.45165 664.69035,171.60659 666.03125,179.75 C 671.03728,210.31061 676.10197,240.7977 683.5625,270.84375 C 679.72887,276.91481 675.94485,283.00666 672.1875,289.125 C 671.43142,285.04556 670.74231,280.94018 670.125,276.84375 C 672.14414,278.00779 675.24187,276.40942 674.46875,273.3125 C 670.31485,256.67312 665.20106,240.15041 666.1875,222.8125 C 665.18715,206.92446 663.47715,191.16201 660.9375,175.4375 C 660.84733,174.55136 660.7495,173.66703 660.65625,172.78125 C 661.16438,166.94081 661.72512,161.09731 662.40625,155.28125 z M 739.0625,199.1875 C 735.95068,208.26658 732.61212,217.28321 728,225.71875 C 721.93364,237.80628 716.01777,249.95269 710.1875,262.15625 C 708.61732,265.44285 711.72412,268.27852 714.125,267.46875 C 711.08349,272.20891 707.82855,276.8204 704.28125,281.25 C 701.2124,285.38702 698.17391,289.54585 695.15625,293.71875 C 693.69876,288.47037 692.30462,283.18155 691.03125,277.875 C 690.50779,275.91164 690.03104,273.93646 689.53125,271.96875 C 694.64663,263.89634 699.82624,255.8489 705.09375,247.875 C 715.84895,231.22657 728.0328,215.615 739.0625,199.1875 z M 736.5625,222.8125 C 735.97576,224.43869 735.37131,226.06243 734.78125,227.6875 C 729.70136,239.08524 724.35176,250.39562 718.03125,261.125 C 723.03983,250.17837 728.25616,239.35254 733.59375,228.5625 C 734.64188,226.67992 735.63351,224.74696 736.5625,222.8125 z M 757.15625,250.25 C 755.07089,259.04119 752.95258,267.82987 750.75,276.59375 C 741.54365,292.0935 732.1368,307.47348 721.65625,322.15625 C 717.36884,326.58617 712.84922,330.77779 707.96875,334.65625 C 707.75484,334.02371 707.5568,333.38281 707.34375,332.75 C 720.26416,315.05536 733.0916,297.2867 744.34375,278.4375 C 749.16574,269.2877 753.25327,259.81867 757.15625,250.25 z M 685.46875,278.375 C 685.55097,278.68761 685.63596,279 685.71875,279.3125 C 685.76866,279.52206 685.82477,279.72804 685.875,279.9375 C 685.52621,279.73415 685.12688,279.61763 684.71875,279.59375 C 684.971,279.1903 685.21611,278.77821 685.46875,278.375 z M 710.75,282.6875 C 706.69169,290.04238 702.51619,297.35448 698.3125,304.625 C 697.93835,303.37502 697.55363,302.12751 697.1875,300.875 C 701.09712,295.48279 705.06513,290.14104 709.0625,284.8125 C 709.63643,284.11014 710.19099,283.39901 710.75,282.6875 z M 686.75,283.53125 C 688.07897,288.86906 689.4942,294.18703 691,299.46875 C 687.37002,304.55378 683.78788,309.664 680.25,314.8125 C 678.48402,309.86703 676.75327,304.89821 675.125,299.90625 C 678.93669,294.53004 682.76729,289.17735 686.59375,283.8125 C 686.65986,283.71981 686.69587,283.62381 686.75,283.53125 z M 670.78125,306.09375 C 672.45707,311.10531 674.21186,316.08813 676,321.0625 C 669.87109,330.13416 663.90027,339.31339 658.125,348.625 C 650.54715,360.32259 643.35669,372.24401 635.9375,384.03125 C 634.86216,382.51444 632.35115,382.04154 630.96875,384.25 C 628.51989,388.16212 626.07388,392.05662 623.625,395.96875 C 611.84771,418.48718 600.99597,441.50039 592.375,465.375 C 592.42932,464.68687 592.47665,464.00047 592.53125,463.3125 C 595.66735,444.25783 605.22141,427.70426 613.71875,410.71875 C 626.05811,383.61319 642.64779,358.98372 659.40625,334.5 C 662.33224,330.32796 665.26154,326.17204 668.1875,322 C 670.49137,318.71502 665.86386,315.46327 663.5625,318.75 C 660.62832,322.94045 657.68417,327.12204 654.75,331.3125 C 651.44022,336.13696 648.13549,340.95548 644.875,345.8125 C 648.66939,339.56772 652.48143,333.33475 656.21875,327.0625 C 660.98687,320.01258 665.88017,313.0525 670.78125,306.09375 z M 693.09375,306.59375 C 693.55572,308.13981 694.02672,309.67627 694.5,311.21875 C 693.1833,313.47215 691.85709,315.72039 690.53125,317.96875 C 689.17863,317.69415 687.6444,318.19251 686.78125,319.90625 C 685.87005,321.71542 684.95318,323.50902 684.03125,325.3125 C 683.57317,324.05216 683.11343,322.79183 682.65625,321.53125 C 686.08903,316.51851 689.56043,311.53694 693.09375,306.59375 z M 696.65625,318.03125 C 698.12666,322.66467 699.6167,327.29455 701.15625,331.90625 C 697.83189,336.44549 694.52104,341.00572 691.21875,345.5625 C 689.90876,341.69819 688.56546,337.84035 687.1875,334 C 690.35833,328.67916 693.51761,323.36881 696.65625,318.03125 z M 678.40625,327.78125 C 678.6745,328.5216 678.95064,329.25959 679.21875,330 C 678.55778,330.21743 677.91384,330.64107 677.40625,331.4375 C 666.18336,349.04697 657.30773,367.87345 649.59375,387.1875 C 640.01811,403.53761 630.48583,419.92066 621.375,436.53125 C 632.2106,413.73674 644.13901,391.50022 655.6875,368.96875 C 656.60872,367.17143 655.96758,365.62759 654.78125,364.8125 C 657.48569,360.44089 660.22769,356.0829 663,351.75 C 667.96676,343.6462 673.11428,335.66722 678.40625,327.78125 z M 703.28125,338.28125 C 703.30241,338.34364 703.32258,338.40636 703.34375,338.46875 C 703.12357,338.67621 702.90671,338.88536 702.6875,339.09375 C 702.88554,338.82267 703.08319,338.55231 703.28125,338.28125 z M 683.0625,340.875 C 684.32886,344.46511 685.61904,348.04082 686.8125,351.65625 C 684.57773,354.77948 682.34807,357.90826 680.15625,361.0625 C 678.59861,363.40419 677.07342,365.77321 675.53125,368.125 C 673.29966,370.60426 671.05393,373.05869 668.78125,375.5 C 667.56958,376.80157 667.605,378.24799 668.25,379.34375 C 659.49907,392.95117 650.93133,406.65478 642.40625,420.40625 C 643.52071,417.23686 644.6587,414.09333 645.8125,410.9375 C 648.8652,404.64818 651.98804,398.37759 655.1875,392.15625 C 663.01815,376.86838 671.25898,361.81095 679.5625,346.78125 C 680.73667,344.81877 681.88949,342.83771 683.0625,340.875 z M 705.25,345.46875 C 702.18986,349.83597 699.14244,354.2186 696.09375,358.59375 C 695.76256,357.68593 695.4386,356.77825 695.09375,355.875 C 698.43797,352.36595 701.81833,348.8924 705.25,345.46875 z M 707.875,351.6875 C 710.39821,358.99111 712.93946,366.31229 715.4375,373.625 C 726.60258,404.25579 736.06975,435.35119 743.3125,467.125 C 742.81191,467.32249 742.31028,467.51115 741.8125,467.71875 C 738.73033,469.0042 739.35068,472.38029 741.5,473.59375 C 739.60164,474.17038 737.72921,474.79346 735.84375,475.40625 C 733.10668,465.65858 730.40311,455.90268 727.53125,446.1875 C 722.10696,432.23066 716.8275,418.23725 710.9375,404.46875 C 706.17644,391.59578 702.73151,378.26979 698.40625,365.25 C 701.55204,360.72743 704.70913,356.19627 707.875,351.6875 z M 690.4375,360.84375 C 690.91127,362.14503 691.36417,363.47156 691.8125,364.78125 C 684.16158,375.80926 676.55254,386.85501 669.125,398.03125 C 656.90332,415.39759 644.58425,432.70728 632.4375,450.125 C 632.91592,448.61698 633.38937,447.09962 633.875,445.59375 C 634.1606,445.09048 634.4647,444.59723 634.75,444.09375 C 648.55461,421.27918 662.44148,398.50527 676.90625,376.09375 C 681.28604,370.89384 685.82117,365.82191 690.4375,360.84375 z M 694.03125,371.5625 C 697.71326,383.2485 700.83331,395.11855 705.0625,406.625 C 710.96824,420.42106 716.11071,434.50979 721.53125,448.5 C 724.39013,458.13206 727.07571,467.79822 729.78125,477.46875 C 726.2383,478.73717 722.7533,480.09527 719.3125,481.625 C 707.67927,486.86674 695.71734,491.7513 686,500.28125 C 675.32216,509.82894 665.64163,519.74405 658.84375,532.59375 C 654.77255,541.28369 651.05084,549.93655 648.71875,558.9375 C 646.97898,558.59504 644.95549,559.68849 645,562.1875 C 645.07479,566.38642 645.15924,570.58273 645.28125,574.78125 C 644.52818,576.96697 643.83957,579.1908 643.21875,581.4375 C 638.31566,599.93754 637.23597,617.45099 647.8125,634.1875 C 656.1519,643.94805 664.68463,651.43065 675.9375,656.9375 C 684.47547,663.77281 693.49469,668.62606 704.1875,671.59375 C 705.66313,672.00329 706.88902,671.54071 707.71875,670.75 C 715.5595,672.17275 723.22119,672.61886 730.71875,671.65625 C 742.3432,673.60672 754.29511,671.58692 766,670.59375 C 782.57627,665.13999 765.97634,663.0093 755.71875,662.0625 C 754.53267,662.06832 753.36863,662.03449 752.21875,662 C 751.81814,659.92869 749.46965,658.19246 746.9375,659.71875 C 745.93448,660.32334 744.94622,660.84969 743.9375,661.34375 C 742.5654,661.15595 741.20996,660.9267 739.875,660.65625 C 739.54997,660.05872 739.00626,659.54021 738.1875,659.15625 C 735.85382,658.06189 733.60457,656.82772 731.4375,655.5 C 740.61982,655.5442 749.81651,655.47068 759,655.6875 C 763.71214,655.79876 763.71336,649.00381 759,649.03125 C 746.85447,649.10206 734.70554,649.44283 722.5625,649.25 C 718.76297,646.26736 715.12687,643.0724 711.53125,639.8125 C 704.64041,631.51987 698.47053,622.61613 692.15625,613.875 C 685.24608,603.05188 682.10782,590.69427 678.59375,578.53125 C 678.36414,577.73653 677.95492,577.13408 677.46875,576.71875 C 677.34368,574.11587 677.27002,571.48553 677.21875,568.875 C 677.25038,567.34351 677.27927,565.81266 677.3125,564.28125 C 678.97376,565.13625 681.37518,564.48665 681.8125,561.875 C 683.14658,553.90796 684.45628,545.94136 687.125,538.28125 C 692.06645,527.33947 697.74078,517.70381 707.625,510.28125 C 716.02462,503.74187 724.62506,497.46463 733.90625,492.21875 C 736.58623,502.66745 738.335,513.26351 741.15625,523.71875 C 745.94443,538.73899 752.06771,553.18474 758.75,567.40625 C 765.74554,581.1831 770.8711,595.68123 777.625,609.59375 C 785.648,623.09937 790.38781,638.21381 795.71875,652.90625 C 801.20694,668.54713 805.91169,684.42357 811.21875,700.125 C 811.35915,700.54039 811.48369,700.9599 811.625,701.375 C 809.23637,702.53129 806.84756,703.69947 804.4375,704.8125 C 804.39525,704.83201 804.35476,704.85551 804.3125,704.875 C 786.1248,710.5544 767.59161,714.92243 748.65625,716.78125 C 746.48631,716.62591 744.30221,716.17819 742.03125,715.28125 C 735.88612,715.01415 729.6905,714.67981 723.5,714.84375 C 707.1701,711.54224 691.02232,706.85139 674.96875,702.5 C 659.93281,694.31293 646.98524,682.61422 633.15625,672.40625 C 621.93141,662.54882 611.32876,651.82971 601.59375,640.40625 C 601.55437,640.25944 601.50796,640.11564 601.46875,639.96875 C 593.06623,608.96754 590.6375,577.89002 594.875,546.125 C 598.37992,524.30387 606.74717,503.94807 617.3125,484.75 C 612.34436,501.57475 607.43572,518.40625 602.21875,535.15625 C 601.08712,538.78955 606.34351,540.35047 607.375,536.6875 C 613.74108,514.08104 619.92415,491.40627 626.65625,468.90625 C 642.07309,446.17867 658.00563,423.79769 673.90625,401.40625 C 680.47289,391.36195 687.20963,381.43823 694.03125,371.5625 z M 635.25,396.71875 C 622.64295,422.69546 609.67776,448.43873 599.09375,475.40625 C 595.75164,484.25293 593.08932,493.31934 590.53125,502.40625 C 587.44122,510.34579 584.51154,518.33269 581.75,526.40625 C 581.92314,521.75306 582.16652,517.11279 582.46875,512.46875 C 584.16576,512.80014 586.18042,511.95061 586.71875,509.59375 C 587.74047,505.1205 588.51195,500.61646 589.1875,496.09375 C 589.55481,495.67588 589.87631,495.16283 590.03125,494.46875 C 596.71018,464.54988 608.65658,436.41113 622.71875,409.34375 C 624.01375,410.73504 626.28321,411.05608 627.6875,408.84375 C 630.23997,404.82258 632.75067,400.77007 635.25,396.71875 z M 600.65625,416.5625 C 592.24102,435.03147 584.67678,453.87294 580.84375,473.9375 C 577.50236,495.22562 576.025,516.63767 575.75,538.125 C 574.04356,536.91011 571.10387,537.80499 571.15625,540.71875 C 571.28455,547.85361 571.45573,554.99152 571.6875,562.125 C 571.39047,563.61038 571.09801,565.08256 570.84375,566.5625 C 569.69267,558.24793 569.41745,549.76883 569.5625,541.15625 C 569.8813,524.50191 571.70998,508.07846 574.28125,491.65625 C 577.31075,474.00649 583.88808,457.32472 589.5,440.40625 C 591.9823,431.85999 596.0746,424.07251 600.65625,416.5625 z M 630.59375,430.90625 C 625.59762,441.98049 620.77769,453.13216 616.09375,464.34375 C 612.60349,470.16646 608.99858,475.91414 605.1875,481.53125 C 609.04974,472.66411 613.13256,463.89295 617.46875,455.21875 C 621.70909,447.03496 626.09851,438.94724 630.59375,430.90625 z M 837.125,461.71875 C 838.14797,461.79673 839.15667,461.88494 840.15625,462 C 840.24349,462.49831 840.48781,462.98048 840.8125,463.4375 C 839.656,462.95049 838.46041,462.53533 837.25,462.125 C 837.21008,461.98815 837.1838,461.84878 837.125,461.71875 z M 851.875,464.34375 C 867.79811,468.91397 880.58843,478.76463 891.9375,492.53125 C 892.37335,493.09419 892.76264,493.68287 893.1875,494.25 C 891.41918,496.27017 893.69444,498.99395 896.5625,498.9375 C 909.78787,518.26941 917.19206,539.83862 921.78125,562.78125 C 922.00774,565.22119 922.22234,567.68094 922.40625,570.125 C 922.38778,578.55839 921.95668,586.97736 921.09375,595.40625 C 921.01854,596.05533 920.92947,596.69683 920.84375,597.34375 C 920.18503,596.55266 919.19153,596.08303 918.21875,596.0625 C 918.27977,583.41517 916.94794,570.81538 913.3125,558.46875 C 912.91805,557.12912 912.07023,556.39877 911.125,556.15625 C 910.29413,553.14387 909.3717,550.1401 908.3125,547.1875 C 906.65796,537.61983 904.05074,528.47426 900.09375,519.96875 C 902.53958,521.52426 906.30104,519.62339 904.9375,516.15625 C 900.45696,504.76353 893.6046,497.03855 885.03125,491.5 C 884.72379,490.96775 884.23182,490.51965 883.5,490.15625 C 881.63683,489.23105 879.73931,488.35607 877.84375,487.53125 C 877.67374,487.45027 877.51474,487.36108 877.34375,487.28125 C 876.97065,487.12083 876.59301,486.96928 876.21875,486.8125 C 874.61201,486.09427 872.9667,485.37975 871.28125,484.75 C 866.37233,479.94719 861.00021,475.69767 854.875,472 C 851.68982,469.4104 848.27047,467.11765 844.59375,465.21875 C 844.77876,465.20816 844.96393,465.22128 845.15625,465.1875 C 847.45318,464.78401 849.68875,464.52408 851.875,464.34375 z M 869.875,465.53125 C 872.46104,466.1367 874.98075,466.92698 877.4375,467.90625 C 877.82728,468.94966 878.62915,469.92824 879.90625,470.5 C 889.74173,474.90335 897.181,481.64168 902.90625,489.875 C 901.46161,490.1351 899.9312,490.6218 898.3125,491.3125 C 897.70222,490.47675 897.10153,489.63981 896.46875,488.8125 C 888.47829,479.08792 879.76613,471.20542 869.875,465.53125 z M 814.5,467.1875 C 816.9712,467.15975 819.40524,467.27454 821.78125,467.53125 C 823.91681,468.16793 826.03444,468.8082 828.1875,469.40625 C 831.86949,470.88092 835.46847,472.55312 839,474.34375 C 832.5732,473.67118 826.57832,471.61698 820.1875,469.34375 C 816.81184,467.91983 813.44007,467.42278 810.0625,467.4375 C 810.76143,467.37964 811.45807,467.30941 812.15625,467.25 C 812.94374,467.21101 813.72347,467.19622 814.5,467.1875 z M 804.125,467.90625 C 799.68443,468.57071 795.20532,469.77522 790.6875,470.65625 C 788.60793,470.91844 786.54831,471.17531 784.46875,471.4375 C 779.9485,472.00741 780.76061,478.37937 785.28125,477.8125 C 787.45697,477.53968 789.60551,477.27284 791.78125,477 C 800.33919,475.43 809.07338,472.17784 817.4375,475.34375 C 817.93908,475.55018 818.43749,475.74055 818.9375,475.9375 C 818.90841,476.29411 818.89989,476.65516 819,477 C 817.48461,478.47493 817.9678,481.57792 820.875,481.84375 C 842.09247,483.78378 831.45928,482.61 852.8125,485.3125 C 853.78231,485.54692 854.73151,485.78723 855.6875,486.03125 C 857.84444,486.65668 859.96753,487.33975 862.09375,488.0625 C 862.38334,488.25352 862.67961,488.43342 862.96875,488.625 C 866.57435,493.02857 869.88757,497.76234 873.09375,502.5625 C 887.92822,525.43327 893.79992,551.2504 896.875,577.90625 C 898.8803,597.25177 897.93563,616.55954 896,635.84375 C 895.92422,636.59874 896.06502,637.21473 896.34375,637.71875 C 892.17004,643.96118 887.6413,650.01768 882.96875,655.96875 C 874.38256,666.54715 863.51473,673.85818 852.03125,680.8125 C 850.36895,681.81917 850.16908,683.453 850.78125,684.6875 C 847.95396,686.06231 845.07005,687.27014 842,688.15625 C 834.66545,691.16921 827.62968,694.84051 820.09375,697.34375 C 819.15006,697.78422 818.22013,698.23899 817.28125,698.6875 C 815.2425,692.72585 813.32297,686.71759 811.40625,680.71875 C 810.34422,676.83394 809.33673,672.94555 808.46875,669 C 798.85966,635.60753 788.00882,602.64466 776.84375,569.75 C 767.8883,539.08476 759.06602,508.32905 751.40625,477.3125 C 755.00172,476.25114 758.60933,475.20925 762.1875,474.125 C 775.84705,470.30079 790.01266,469.05005 804.125,467.90625 z M 746.15625,478.875 C 753.75327,509.90038 762.65175,540.62873 771.625,571.28125 C 775.76854,583.44384 779.85836,595.60751 783.84375,607.8125 C 783.62638,607.43661 783.4097,607.06109 783.1875,606.6875 C 776.49276,592.74315 771.4271,578.19697 764.375,564.4375 C 757.82183,550.63273 751.88219,536.57579 747.3125,521.9375 C 744.45294,511.0082 742.809,499.89852 739.71875,489.0625 C 740.15478,488.84602 740.59184,488.64867 741.03125,488.4375 C 745.28844,486.39156 742.25641,480.29606 738.0625,482.46875 C 738.00033,482.50096 737.93711,482.53021 737.875,482.5625 C 737.78059,482.2298 737.68798,481.89524 737.59375,481.5625 C 740.4384,480.62704 743.28698,479.74175 746.15625,478.875 z M 731.53125,483.65625 C 731.7252,484.34493 731.93037,485.03024 732.125,485.71875 C 727.54178,488.35772 723.09713,491.22776 718.75,494.21875 C 719.23423,492.17414 718.01939,489.9857 715.84375,490.21875 C 717.93736,489.26881 720.04367,488.33258 722.125,487.375 C 725.21792,486.03739 728.36071,484.79834 731.53125,483.65625 z M 605.0625,492.90625 C 605.19849,493.45276 605.511,493.89703 605.90625,494.25 C 598.09612,510.44067 592.06164,527.38664 589.375,545.375 C 585.67955,573.95712 586.96215,601.96924 593.0625,629.90625 C 591.95171,628.47293 590.83195,627.04664 589.75,625.59375 C 584.33985,604.29838 582.08458,582.43726 581.40625,560.1875 C 581.34292,555.4363 581.35079,550.68229 581.375,545.9375 C 583.87188,537.90644 586.492,529.9452 589.28125,522.03125 C 590.50518,521.97332 591.69634,521.22415 592.09375,519.5625 C 593.25645,514.70109 594.40401,509.82461 595.59375,504.96875 C 596.40587,502.86132 597.22692,500.7542 598.0625,498.65625 C 599.31681,499.19743 600.8635,498.97992 601.96875,497.40625 C 603.01755,495.91296 604.03635,494.4132 605.0625,492.90625 z M 704.875,495.46875 C 699.52941,499.73684 694.40108,504.23616 688.90625,508.3125 C 684.36985,512.20573 679.69989,515.97343 676.3125,520.96875 C 676.3062,520.36758 676.09119,519.8378 675.75,519.40625 C 680.20692,514.34586 685.13069,509.69089 690.25,505.09375 C 694.73036,501.24131 699.69377,498.17847 704.875,495.46875 z M 905.4375,496.0625 C 905.89418,496.04603 906.31648,496.07705 906.75,496.125 C 908.78372,499.80372 910.58086,503.68624 912.125,507.75 C 913.50585,512.79123 914.72019,517.87074 915.8125,522.96875 C 912.10556,513.88121 907.62369,505.09078 902.09375,496.71875 C 903.26548,496.31335 904.3932,496.10017 905.4375,496.0625 z M 714.03125,497.53125 C 710.44739,500.10758 706.91163,502.72294 703.40625,505.40625 C 702.78546,505.86975 702.18418,506.36334 701.59375,506.84375 C 704.39689,504.49139 707.16709,502.09946 710.03125,499.8125 C 710.93209,498.02866 712.47886,497.76722 714.03125,497.53125 z M 890.21875,503.875 C 892.09313,505.99266 893.7816,508.3585 895.28125,511 C 893.7454,508.5519 892.05972,506.17714 890.21875,503.875 z M 701.375,507.03125 C 698.21041,509.63362 695.46272,512.45593 693.03125,515.5 C 694.34534,513.8721 695.7054,512.25842 696.96875,510.59375 C 698.44182,509.40887 699.92638,508.24579 701.375,507.03125 z M 919.53125,512.4375 C 921.44081,518.53779 922.66018,525.21368 923.65625,530.40625 C 923.54147,530.40029 923.42754,530.43225 923.3125,530.4375 C 922.21337,524.41507 920.96514,518.39626 919.53125,512.4375 z M 692.875,515.6875 C 692.10108,516.66414 691.37211,517.67133 690.65625,518.6875 C 691.34865,517.64536 692.09189,516.66389 692.875,515.6875 z M 889.15625,520.71875 C 892.50854,527.13716 895.57227,533.70426 898.5625,540.3125 C 900.67119,544.71393 902.40004,549.20353 903.84375,553.78125 C 904.71998,560.21208 905.21227,566.80631 905.46875,573.5 C 905.55424,575.73119 907.41783,576.59028 908.9375,576.15625 C 909.42848,579.20294 909.87934,582.27282 910.28125,585.34375 C 911.76516,594.00656 911.82504,602.37198 911.03125,610.6875 C 908.58928,616.65424 905.69535,622.39315 902.46875,627.9375 C 903.84937,611.05216 904.35975,594.14827 902.6875,577.21875 C 900.38126,557.6644 896.61354,538.60282 889.15625,520.71875 z M 677.125,532.1875 C 676.61408,533.46445 676.1004,534.74138 675.625,536.03125 C 675.30937,535.99589 674.99318,536.00619 674.6875,536.0625 C 675.48736,534.76084 676.30146,533.47311 677.125,532.1875 z M 671.84375,540.875 C 671.2526,543.17007 670.48126,545.46776 670.90625,547.875 C 670.89403,548.96826 670.88833,550.06301 670.875,551.15625 C 670.5468,552.39001 670.21417,553.62303 669.90625,554.875 C 668.28889,567.47052 668.17423,579.81277 670.4375,592.46875 C 670.77819,594.37385 672.08636,595.30698 673.46875,595.4375 C 673.75309,596.53516 674.05983,597.62942 674.40625,598.71875 C 678.42277,609.00468 683.58489,618.49397 690.625,627.1875 C 696.29568,634.41256 701.88251,641.74145 707.90625,648.6875 C 706.87804,648.62026 705.87129,648.55837 704.875,648.4375 C 697.40773,643.92683 690.62477,638.19868 684.3125,631.15625 C 680.63774,624.35921 678.67991,616.7092 676.28125,609.25 C 675.35961,606.38394 672.40025,606.20812 670.9375,607.71875 C 665.60549,593.27134 664.17681,577.73077 664.3125,561.53125 C 664.31897,560.75817 664.12686,560.15452 663.78125,559.6875 C 666.40432,553.61947 668.94409,547.52369 671.53125,541.4375 C 671.63477,541.24936 671.73914,541.06239 671.84375,540.875 z M 928.3125,560.875 C 928.77749,561.21719 929.34742,561.37519 929.90625,561.34375 C 930.43036,563.40304 930.90133,565.4813 931.3125,567.5625 C 931.52232,571.83581 931.64235,576.13556 931.6875,580.46875 C 931.70222,581.88146 932.4852,582.73181 933.4375,583.03125 C 933.86281,588.17086 934.02895,593.36137 934.03125,598.5625 C 932.98475,596.54982 929.83793,596.30429 928.46875,598.4375 C 929.01398,592.6485 929.22804,586.78455 929.03125,580.78125 C 928.86591,577.53768 928.64353,574.27005 928.40625,571.03125 C 928.43547,567.64642 928.39274,564.26027 928.3125,560.875 z M 658.96875,571.90625 C 659.72026,593.90935 664.11305,614.51895 678,632.8125 C 679.49161,635.72097 681.21671,638.53145 683.25,641.15625 C 679.89838,639.30971 676.66517,637.20262 673.4375,634.9375 C 674.66277,633.67411 674.98641,631.49107 673.09375,629.90625 C 658.00803,617.27436 654.05396,603.15707 654.5625,586.21875 C 654.9864,584.83332 655.41671,583.44656 655.8125,582.0625 C 656.63449,578.61564 657.7482,575.23078 658.96875,571.90625 z M 933.71875,604.65625 C 932.28766,621.09377 925.96588,635.70141 918.125,650.15625 C 916.99619,651.39255 915.84842,652.59647 914.6875,653.8125 C 911.10054,657.05066 907.62019,660.43773 904.125,663.78125 C 905.71351,661.03011 907.21136,658.25279 908.53125,655.40625 C 911.733,651.09347 914.755,646.66869 917.78125,642.21875 C 924.11632,633.29751 928.36152,623.44833 932,613.21875 C 932.98265,610.43948 933.33615,607.54754 933.71875,604.65625 z M 919.125,607.4375 C 918.50358,610.46488 917.81068,613.46875 917.0625,616.46875 C 917.23247,614.827 917.36303,613.20606 917.5,611.5625 C 918.06526,610.20424 918.60465,608.82081 919.125,607.4375 z M 583.375,626.9375 C 583.86301,627.60392 584.38138,628.24354 584.875,628.90625 C 587.431,638.66448 590.62554,648.29694 594.59375,657.8125 C 594.92941,658.71275 595.28488,659.60231 595.625,660.5 C 591.88265,654.20881 588.84483,647.66988 586.34375,640.9375 C 585.11475,636.32795 584.14258,631.65856 583.375,626.9375 z M 907.625,630.96875 C 907.48054,631.61218 907.36836,632.26134 907.21875,632.90625 C 906.29044,635.65345 905.16896,638.21477 903.9375,640.65625 C 898.11521,648.08148 892.22049,655.46112 886.15625,662.6875 C 883.59829,664.96131 880.9265,667.18342 878.15625,669.375 C 878.08251,669.41498 878.01124,669.46001 877.9375,669.5 C 881.34763,666.46413 884.54639,663.18773 887.5,659.53125 C 894.75452,650.33636 901.67645,640.91273 907.625,630.96875 z M 664.25,636.09375 C 675.82021,644.67309 687.37492,652.0812 701.59375,654.28125 C 702.86541,654.83995 704.14161,655.33994 705.46875,655.78125 C 711.42463,659.10217 717.79157,661.7662 724.65625,663.84375 C 723.81388,664.10981 723.23595,664.76259 722.9375,665.5625 C 718.25925,665.52198 713.49439,665.06226 708.625,664.59375 C 700.3292,662.91001 693.22189,659.7316 686.6875,655.625 C 686.51598,654.78114 685.90095,653.99581 684.6875,653.53125 C 683.75417,653.17394 682.83402,652.81607 681.9375,652.4375 C 676.77052,648.69651 671.87851,644.39777 666.96875,639.8125 C 665.99496,638.59466 665.08347,637.36375 664.25,636.09375 z M 594.28125,640.875 C 594.9667,641.7066 595.64961,642.55028 596.34375,643.375 C 597.44682,647.56182 598.61509,651.71163 599.90625,655.8125 C 597.80653,650.87899 595.95675,645.88437 594.28125,640.875 z M 605.53125,653.8125 C 613.12061,662.06852 621.1296,669.94536 629.5,677.34375 C 643.84975,688.09282 657.27023,700.64343 673.375,708.5 C 679.76944,710.15934 686.1738,711.89741 692.59375,713.59375 C 691.37105,713.36015 690.15253,713.08912 688.9375,712.78125 C 681.60137,710.85288 674.20896,709.32764 666.8125,707.8125 C 659.39437,703.42527 652.22466,698.78326 645.125,693.90625 C 635.89704,687.30211 628.29736,679.04361 620.90625,670.53125 C 621.70928,669.6907 612.4234,661.83099 612.375,661.78125 C 610.89546,660.26043 609.22491,660.49476 608.125,661.5 C 607.19894,658.96434 606.35931,656.39236 605.53125,653.8125 z M 611.25,669.4375 C 613.09168,670.92172 614.9068,672.42544 615.96875,674.6875 C 623.57664,683.46545 631.41346,691.9981 640.78125,698.96875 C 639.23973,698.03469 637.68457,697.11609 636.0625,696.25 C 628.61983,693.29833 626.24498,693.21098 625.375,694.53125 C 619.56309,686.67007 614.9846,678.24772 611.25,669.4375 z M 894.21875,671.65625 C 894.38769,671.91435 894.60681,672.14709 894.84375,672.34375 C 893.20826,673.76365 891.55128,675.13442 889.84375,676.46875 C 889.09771,676.93972 888.3413,677.40666 887.59375,677.875 C 889.84308,675.83963 892.02809,673.75622 894.21875,671.65625 z M 608.34375,691.1875 C 608.59656,691.51897 608.83854,691.8577 609.09375,692.1875 C 609.3135,692.63952 609.5592,693.08035 609.78125,693.53125 C 609.3052,692.75267 608.80499,691.97392 608.34375,691.1875 z M 610.15625,694.34375 C 610.81214,695.66535 611.5108,696.96972 612.1875,698.28125 C 611.55849,697.32838 610.92737,696.38654 610.34375,695.40625 C 610.32921,695.06177 610.29229,694.70989 610.15625,694.34375 z M 626.71875,703.4375 C 632.38037,706.5157 638.55513,708.22829 644.8125,709.6875 C 648.76088,712.5366 652.49232,715.64433 656.03125,719.28125 C 662.08401,723.00308 667.9344,727.33559 674.03125,731.03125 C 667.90582,730.22459 661.82249,729.18968 655.75,728 C 657.43301,726.39292 657.30803,723.11224 654.1875,722.34375 C 647.90734,720.79714 641.96957,718.66625 636.25,716.0625 C 633.23409,711.74223 629.99814,707.56817 626.71875,703.4375 z M 814.5625,710.46875 C 815.33729,712.82268 816.10379,715.17634 816.875,717.53125 C 810.19587,717.10986 804.28629,719.82136 798.03125,722.125 C 788.83667,726.06544 779.09936,727.72967 769.28125,729.09375 C 767.48249,729.38033 765.70501,729.65094 763.90625,729.9375 C 768.35608,727.7206 772.89429,725.68225 777.34375,723.46875 C 785.53552,721.19157 793.10796,717.43791 800.71875,713.75 C 805.3357,712.65942 809.94534,711.55671 814.5625,710.46875 z M 658.375,712.6875 C 660.2739,713.08151 662.1649,713.48739 664.0625,713.875 C 670.66811,717.39528 677.72303,720.19709 683.59375,724.90625 C 685.62974,727.22559 687.58458,729.5005 689.65625,731.59375 C 678.66989,727.82095 669.36954,719.94598 659.5,713.78125 C 659.13148,713.40669 658.74635,713.05389 658.375,712.6875 z M 686.59375,718.875 C 686.83294,718.93736 687.07342,718.99929 687.3125,719.0625 C 697.59382,721.6944 708.1638,721.75494 718.6875,721.71875 C 721.30249,721.54283 723.91468,721.4688 726.53125,721.46875 C 727.89583,721.71482 729.25763,721.93388 730.625,722.15625 C 720.82741,726.67293 710.67434,729.65371 700.0625,731.59375 C 695.64637,728.82806 692.38494,725.00175 688.875,720.8125 C 688.12889,720.13633 687.38256,719.48931 686.59375,718.875 z M 761.21875,722.5 C 761.81713,722.77925 762.55651,722.88239 763.40625,722.6875 C 762.19546,723.27842 760.98006,723.84569 759.78125,724.46875 C 753.17824,726.84714 746.5645,729.43594 739.71875,731.28125 C 731.44405,733.33417 723.50042,735.77816 714.90625,734.78125 C 724.50005,731.77413 733.74687,727.55019 742.96875,723.15625 C 743.51116,723.11655 744.05186,723.07482 744.59375,723.03125 C 750.11109,724.18217 755.52005,723.18626 761.21875,722.5 z M 681.6875,838.8125 C 691.92202,838.77385 702.67853,842.12776 713.78125,849.28125 C 707.06562,849.14894 700.33825,849.31025 693.625,849.8125 C 685.83493,846.27211 678.14136,844.38972 668.59375,846.96875 C 659.37268,850.10924 650.23863,853.55302 641.6875,858.28125 C 653.61144,845.7653 667.12736,838.86748 681.6875,838.8125 z M 838.125,851.1875 C 838.40511,851.56713 838.76414,851.86536 839.15625,852.0625 C 838.04787,872.68139 834.27953,893.10956 829.03125,913.09375 C 821.9102,939.56465 814.04283,965.37847 797.5625,987.5625 C 791.4199,995.73751 784.26754,1002.1108 776.4375,1007.375 C 778.47017,1005.3785 778.99639,1004.63 785.46875,997.28125 C 798.96458,981.77315 810.90946,965.31741 818.5625,946.0625 C 819.43553,943.82364 819.87432,941.45275 819.96875,939.34375 C 821.39409,935.79065 820.98923,935.3197 819.8125,936.1875 C 819.1397,932.13251 816.61383,930.99004 813.09375,938.59375 C 809.86239,945.56425 806.80033,952.57246 802.21875,958.65625 C 804.57339,955.24947 805.94515,952.69376 804.625,950.34375 C 812.89409,934.97421 819.33004,918.7548 825.03125,902.15625 C 830.38462,885.44654 835.58716,868.59253 838.125,851.1875 z M 707.375,855.75 C 711.43512,855.73775 715.50834,855.85252 719.5625,856.0625 C 720.5434,856.36222 721.42862,856.69706 722.28125,857.0625 C 731.44995,868.65282 736.0373,880.70113 737,892.75 C 734.1197,885.16525 729.03992,878.9879 721.46875,874.21875 C 717.24103,866.98359 712.7403,860.23236 705.21875,855.78125 C 705.93713,855.77138 706.65668,855.75217 707.375,855.75 z M 651.5,860.65625 C 651.43976,860.70258 651.37267,860.73447 651.3125,860.78125 C 640.07624,870.48208 630.61612,880.11689 626.5,895 C 625.72616,898.10308 625.04485,901.18186 624.4375,904.28125 C 623.03139,905.02159 621.23928,906.42565 619.03125,908.5625 C 617.57574,912.1188 616.39138,915.7413 615.40625,919.375 C 617.43976,904.14633 622.17015,889.27301 629.5625,874.25 C 633.41727,871.3666 637.40533,868.6525 641.375,865.90625 C 644.66528,863.97409 648.06171,862.25452 651.5,860.65625 z M 692.75,863.8125 C 694.04045,864.67879 695.27845,865.56252 696.46875,866.5 C 692.15689,866.08205 687.89792,865.98159 683.71875,866.25 C 683.47861,866.2577 683.24149,866.23757 683,866.25 C 685.89,865.08541 689.12711,864.26307 692.75,863.8125 z M 713.71875,876.84375 C 714.64145,877.29764 715.52086,877.76234 716.375,878.25 C 717.81834,880.78283 719.21919,883.37547 720.75,885.9375 C 721.15807,886.69217 721.54553,887.41589 721.875,888.15625 C 720.30481,886.04539 718.62963,884.03641 716.875,882.125 C 715.90625,880.31475 714.85659,878.55874 713.71875,876.84375 z M 703.5,878.5625 C 706.76853,880.64487 709.77282,883.20307 712.53125,886.15625 C 713.15607,887.38316 713.73643,888.64081 714.28125,889.90625 C 710.96418,885.82415 707.53052,881.89583 703.5,878.5625 z M 682.25,878.625 C 686.27769,878.64013 690.45205,879.0831 694.75,879.875 C 702.81204,884.69818 708.27469,892.08334 713.9375,899.34375 C 715.09223,900.82424 716.62427,900.94491 717.8125,900.34375 C 718.98021,904.94861 719.71669,909.70285 720.0625,914.53125 C 718.96725,916.90628 717.71413,919.29703 716.40625,921.75 C 716.68864,918.64485 716.71808,915.24217 716.4375,911.53125 C 710.10296,890.90139 691.06644,872.6853 671.875,892.71875 C 668.70793,898.34366 666.28849,904.08951 664.78125,909.84375 C 664.65903,909.97772 664.59433,910.05035 664.46875,910.1875 C 662.76043,914.31485 661.43011,918.46085 660.4375,922.5625 C 660.38382,922.21204 660.33349,921.84548 660.28125,921.5 C 660.00315,908.1163 661.01853,895.0356 665.28125,884.6875 C 666.34321,883.20639 667.50945,881.76363 668.78125,880.375 C 673.07377,879.16344 677.56813,878.60742 682.25,878.625 z M 620.09375,882.3125 C 609.52676,907.61553 606.16157,932.6889 610.4375,960.0625 C 610.76404,968.1714 612.01408,976.19959 613.53125,984.25 C 614.6504,987.47611 616.13167,990.34383 617.84375,993 C 621.76536,1006.8065 627.06736,1020.0592 635.5625,1031.5625 C 626.46546,1026.929 619.8325,1018.96 613.125,1011.0938 C 607.26119,1001.9299 603.36357,991.67333 598.59375,981.90625 C 593.32463,974.24195 591.07944,965.65644 588.75,956.90625 C 587.91512,949.24345 588.8624,941.7227 590.125,934.1875 C 591.94435,926.8391 595.21297,920.18502 598.4375,913.40625 C 603.41042,904.59906 609.16916,896.30034 615.09375,888.125 C 616.62893,886.04507 618.31466,884.11677 620.09375,882.3125 z M 658.3125,884.9375 C 649.64755,899.31565 648.34954,916.51655 651.625,935.25 C 653.80365,945.52391 656.8412,956.6968 662.25,965.4375 C 659.28816,965.74496 656.73662,965.27371 654.40625,964.1875 C 650.09775,960.14105 647.03698,954.6324 643.65625,948.15625 C 637.81744,929.32234 639.42102,911.59984 647.34375,894.25 C 650.78798,890.37375 654.44845,887.29257 658.3125,884.9375 z M 741.59375,887.65625 C 744.39971,896.08399 746.72288,904.67929 749.25,913.1875 C 753.05375,926.4413 750.73149,937.21103 745.09375,949.125 C 736.15462,961.5846 724.6056,967.69803 710.5,971.90625 C 709.37639,971.86308 708.24893,971.84892 707.125,971.8125 C 724.14664,958.34993 734.13866,938.13521 739.6875,916.375 C 739.70488,916.15108 739.73451,915.9413 739.75,915.71875 C 742.2391,906.46231 742.97276,897.03884 741.59375,887.65625 z M 690.0625,890.84375 C 699.96173,890.81579 706.99909,900.53212 710.5625,913.28125 C 710.81081,918.2261 710.4415,922.71548 709.4375,926.59375 C 708.8177,909.32664 704.20097,897.7186 686.75,898.90625 C 687.77057,898.55146 688.79537,898.21619 690.15625,897.71875 C 694.12707,896.26731 691.72662,890.44415 687.875,892.1875 C 680.75362,895.41078 678.03343,896.31522 676.21875,897.4375 C 676.53125,896.87715 676.82643,896.30658 677.15625,895.75 C 681.8712,892.35885 686.18889,890.85469 690.0625,890.84375 z M 729.75,891.46875 C 733.315,898.12128 734.49977,906.23514 733.6875,915.90625 C 732.59443,920.16336 731.28519,924.36968 729.8125,928.5 C 724.63007,939.52182 716.97866,950.07738 707.625,959.78125 C 703.95531,961.87866 700.53784,963.51804 697.34375,964.71875 C 697.94339,964.44159 698.53954,964.18865 699.15625,963.875 C 719.03177,950.11232 733.15918,929.43833 729.8125,905.28125 C 730.75072,900.76852 730.84422,896.19676 729.75,891.46875 z M 680.71875,901.09375 C 674.0121,912.51106 670.1629,924.17192 674.75,935.0625 C 674.58276,936.04104 674.94082,937.03638 676.03125,937.625 C 678.00907,941.19597 680.93456,944.68534 685.0625,948.03125 C 688.51106,947.9573 691.69066,947.62476 694.59375,947.03125 C 692.9749,948.39567 691.31509,949.7184 689.625,951 C 686.41389,950.57265 683.02882,949.72771 679.5,948.5625 C 669.04159,937.24167 667.03749,924.09912 670.5,911.15625 C 677.67495,903.74135 678.08525,902.29035 680.71875,901.09375 z M 686.0625,904.15625 C 700.56802,903.95157 703.78014,913.01554 703.15625,925.53125 C 696.54258,936.68094 691.25727,936.77043 680.90625,932.71875 C 676.6643,923.12822 679.30644,914.13176 686.0625,904.15625 z M 709.34375,926.9375 C 706.60258,937.0457 699.37962,942.92709 686.9375,941.90625 C 686.43796,941.3319 685.9813,940.7551 685.53125,940.1875 C 695.77602,942.1741 702.38002,939.92367 709.34375,926.9375 z M 720.0625,927.6875 C 720.00777,928.50611 719.94949,929.30672 719.875,930.125 C 715.39117,942.97669 708.38024,949.25528 699.46875,950.875 C 707.33101,944.14545 714.33271,936.48517 720.0625,927.6875 z M 663.90625,931.59375 C 665.55605,939.50025 669.57799,947.08356 676.5,954 C 678.34762,954.95777 680.18687,955.73721 682,956.375 C 680.09044,957.62578 678.15659,958.83589 676.1875,960 C 669.49313,956.15994 665.76543,947.28493 663.375,937.71875 C 663.4578,935.72245 663.61147,933.67324 663.90625,931.59375 z M 696.78125,958.1875 C 696.44465,958.41599 696.12166,958.65123 695.78125,958.875 C 691.52157,960.91256 687.79285,961.89358 684.53125,962 C 686.40241,960.78489 688.21896,959.5121 690.03125,958.21875 C 692.34211,958.46058 694.5913,958.44525 696.78125,958.1875 z M 788.84375,964.6875 C 783.60101,971.79354 777.62665,977.09144 770.46875,980.875 C 774.38939,977.17669 778.37641,973.55881 782.5,970.0625 C 784.59639,968.25956 786.72545,966.46246 788.84375,964.6875 z M 703.25,967.65625 C 701.3776,969.06941 699.41119,970.35238 697.34375,971.5625 C 695.81303,971.53287 694.28093,971.49244 692.75,971.46875 C 696.02581,970.65969 699.51609,969.41336 703.25,967.65625 z M 795.46875,975.03125 C 790.98308,981.36331 786.10337,987.44206 780.96875,993.375 C 770.75907,1004.9553 775.97666,999.53087 765.28125,1009.7188 C 763.7492,1011.1781 764.00647,1012.9979 765.03125,1014.0938 C 755.767,1018.9216 745.86743,1022.8034 735.71875,1026.6563 C 708.18869,1034.7771 675.14004,1051.1806 647.46875,1036.7188 C 641.43456,1030.445 636.72966,1023.4266 632.90625,1015.9375 C 634.10205,1017.3693 635.45073,1018.7621 636.9375,1020.0938 C 654.44813,1028.4906 672.0026,1033.8393 691.90625,1030.7813 C 715.12823,1027.016 737.75905,1021.6685 756.875,1007.0625 C 765.15146,1001.3938 774.51646,996.23304 778.4375,990.0625 C 784.48284,985.52262 790.04246,980.33289 795.46875,975.03125 z M 628.09375,981.21875 C 628.65264,982.13653 629.25666,983.04047 629.90625,983.9375 C 632.45209,985.62122 635.00817,987.20321 637.59375,988.6875 C 641.17841,991.72342 645.06326,994.52294 649.1875,997.1875 C 667.47049,1007.4661 688.80887,1009.3096 709.40625,1009.375 C 711.74396,1009.339 714.05419,1009.1904 716.3125,1008.9375 C 723.96682,1008.6593 731.59595,1007.7164 739.09375,1006 C 730.43933,1008.9006 721.26248,1010.4879 712.21875,1012.4063 C 696.90679,1016.2552 682.56804,1012.3074 667.8125,1008.375 C 655.9816,1005.9168 645.36957,1001.3751 635.59375,994.5625 C 632.64081,990.8194 630.26243,986.77354 628.21875,982.5625 C 628.17653,982.1121 628.13442,981.67065 628.09375,981.21875 z M 621.1875,983 C 621.44413,983.57304 621.70212,984.151 621.96875,984.71875 C 622.06337,985.53249 622.14561,986.35055 622.25,987.15625 C 621.8777,985.78007 621.53827,984.38215 621.1875,983 z M 742.375,994.375 C 734.65341,998.4142 726.54444,1001.3651 717.78125,1002.625 C 711.16802,1003.1055 704.50523,1003.0314 697.8125,1002.1875 C 705.63562,1001.9185 713.40428,1000.7564 721.15625,998.0625 C 728.20726,996.72556 735.28274,995.42096 742.375,994.375 z M 634.40625,1001.5938 C 644.15921,1007.695 654.43809,1012.1876 666,1014.4688 C 681.68732,1018.6686 697.23531,1022.8191 713.5,1018.5 C 719.22251,1017.3182 724.96148,1016.2361 730.59375,1014.9063 C 718.03518,1019.9122 704.61705,1022.6202 690.96875,1024.8125 C 675.61863,1027.0994 661.72478,1024.0779 648.21875,1018.3438 C 651.01635,1018.4308 652.89469,1014.5176 649.875,1012.4375 C 644.64111,1008.8322 639.25093,1005.4624 634.40625,1001.5938 z M 637.40625,1011.5313 C 640.12936,1013.4351 642.88994,1015.3121 645.65625,1017.2188 C 643.82344,1016.3932 642.01213,1015.5061 640.1875,1014.5938 C 639.16708,1013.6042 638.25165,1012.5824 637.40625,1011.5313 z" id="path2290"/>
  </g>
  <metadata>
    <rdf:RDF>
      <cc:Work>
        <dc:format>image/svg+xml</dc:format>
        <dc:type rdf:resource="http://purl.org/dc/dcmitype/StillImage"/>
        <cc:license rdf:resource="http://creativecommons.org/licenses/publicdomain/"/>
        <dc:publisher>
          <cc:Agent rdf:about="http://openclipart.org/">
            <dc:title>Open Clip Art Library</dc:title>
          </cc:Agent>
        </dc:publisher>
        <dc:title>treble clefs</dc:title>
        <dc:date>2007-02-28T08:24:06</dc:date>
        <dc:description>Three hand drawn treble clefs</dc:description>
        <dc:source>http://openclipart.org/detail/3337/treble-clefs-by-zeimusu-3337</dc:source>
        <dc:creator>
          <cc:Agent>
            <dc:title>zeimusu</dc:title>
          </cc:Agent>
        </dc:creator>
        <dc:subject>
          <rdf:Bag>
            <rdf:li>clef</rdf:li>
            <rdf:li>clef</rdf:li>
            <rdf:li>clip art</rdf:li>
            <rdf:li>clipart</rdf:li>
            <rdf:li>image</rdf:li>
            <rdf:li>media</rdf:li>
            <rdf:li>music</rdf:li>
            <rdf:li>music</rdf:li>
            <rdf:li>musical note</rdf:li>
            <rdf:li>musical note</rdf:li>
            <rdf:li>note</rdf:li>
            <rdf:li>note</rdf:li>
            <rdf:li>png</rdf:li>
            <rdf:li>public domain</rdf:li>
            <rdf:li>svg</rdf:li>
            <rdf:li>treble</rdf:li>
            <rdf:li>treble</rdf:li>
          </rdf:Bag>
        </dc:subject>
      </cc:Work>
      <cc:License rdf:about="http://creativecommons.org/licenses/publicdomain/">
        <cc:permits rdf:resource="http://creativecommons.org/ns#Reproduction"/>
        <cc:permits rdf:resource="http://creativecommons.org/ns#Distribution"/>
        <cc:permits rdf:resource="http://creativecommons.org/ns#DerivativeWorks"/>
      </cc:License>
    </rdf:RDF>
  </metadata>
</svg>
